<?xml version="1.0" encoding="UTF-8"?>
<!-- Generator: Adobe Illustrator 23.0.3, SVG Export Plug-In . SVG Version: 6.00 Build 0)  -->
<svg version="1.1" id="Layer_1" xmlns="http://www.w3.org/2000/svg" xmlns:xlink="http://www.w3.org/1999/xlink" x="0px" y="0px" viewBox="0 0 1214 941" style="enable-background:new 0 0 1214 941;" xml:space="preserve">
<style type="text/css">
	.st0{fill-rule:evenodd;clip-rule:evenodd;fill:#1F293F;}
	.st1{fill:#FFFFFF;}
	.st2{opacity:0.3;}
	.st3{fill:#DBE5FD;}
	.st4{fill:#CCCCCC;}
</style>
<g>
	<path class="st0" d="M160,231h893v60H160V231z"/>
	<path class="st0" d="M160,353h893v60H160V353z"/>
	<path class="st0" d="M160,473h893v60H160V473z"/>
	<path class="st0" d="M160,596h893v60H160V596z"/>
	<path class="st0" d="M160,717h893v60H160V717z"/>
	<g>
		<path class="st1" d="M163,168h887c1.7,0,3,1.3,3,3v605c0,1.7-1.3,3-3,3H163c-1.7,0-3-1.3-3-3V171C160,169.3,161.3,168,163,168z     M163,170c-0.6,0-1,0.4-1,1v605c0,0.6,0.4,1,1,1h887c0.6,0,1-0.4,1-1V171c0-0.6-0.4-1-1-1H163z"/>
		<g class="st2">
			<path class="st3" d="M275.2,168h2v609h-2V168z"/>
			<path class="st3" d="M552.2,168h2v609h-2V168z"/>
			<path class="st3" d="M801.8,168h2v609h-2V168z"/>
			<path class="st3" d="M160,293v-2h892v2H160z"/>
			<path class="st3" d="M160,353v-2h891v2H160z"/>
			<path class="st3" d="M160,414v-2h892v2H160z"/>
			<path class="st3" d="M160,475v-2h892v2H160z"/>
			<path class="st3" d="M160,535v-2h892v2H160z"/>
			<path class="st3" d="M160,596v-2h892v2H160z"/>
			<path class="st3" d="M160,657v-2h892v2H160z"/>
			<path class="st3" d="M160,718v-2h892v2H160z"/>
		</g>
		<path class="st1" d="M183.3,195.7h4.2c1.8,0,3.3,0.5,4.3,1.5s1.5,2.4,1.5,4.2s-0.5,3.2-1.5,4.2s-2.5,1.5-4.3,1.5h-4.2V195.7z     M187.3,205.3c2.6,0,3.9-1.3,3.9-4c0-2.6-1.3-4-3.9-4h-2v7.9H187.3z M198.5,199c1.1,0,1.9,0.3,2.4,0.8s0.8,1.4,0.8,2.5v4.8h-1.9    v-1.2c-0.2,0.4-0.5,0.7-0.9,1s-0.8,0.4-1.4,0.4c-0.5,0-1-0.1-1.4-0.3s-0.8-0.5-1-0.9s-0.4-0.8-0.4-1.2c0-0.6,0.1-1,0.4-1.4    s0.8-0.6,1.4-0.7s1.6-0.2,2.7-0.2h0.4V202c0-0.5-0.1-0.9-0.3-1.2s-0.6-0.4-1.1-0.4c-0.4,0-0.9,0.1-1.3,0.2s-0.9,0.3-1.3,0.6    l-0.6-1.4c0.4-0.3,1-0.5,1.6-0.7S197.9,199,198.5,199z M198,205.7c0.5,0,1-0.2,1.3-0.5s0.5-0.8,0.5-1.4v-0.3h-0.3    c-0.7,0-1.3,0-1.7,0.1s-0.7,0.2-0.8,0.3s-0.3,0.4-0.3,0.7c0,0.3,0.1,0.6,0.4,0.8S197.7,205.7,198,205.7z M207.8,205.6    c0.2,0,0.5,0,0.7,0l-0.1,1.5c-0.3,0-0.6,0-0.9,0c-1.1,0-1.9-0.3-2.4-0.8s-0.8-1.3-0.8-2.3v-3.4h-1.5v-1.5h1.5v-2.3h2v2.3h2.1v1.5    h-2.1v3.4C206.3,205.1,206.8,205.6,207.8,205.6L207.8,205.6z M213,199c1.1,0,1.9,0.3,2.4,0.8s0.8,1.4,0.8,2.5v4.8h-1.9v-1.2    c-0.2,0.4-0.5,0.7-0.9,1s-0.8,0.4-1.4,0.4c-0.5,0-1-0.1-1.4-0.3s-0.8-0.5-1-0.9s-0.4-0.8-0.4-1.2c0-0.6,0.1-1,0.4-1.4    s0.8-0.6,1.4-0.7s1.6-0.2,2.7-0.2h0.4V202c0-0.5-0.1-0.9-0.3-1.2s-0.6-0.4-1.1-0.4c-0.4,0-0.9,0.1-1.3,0.2s-0.9,0.3-1.3,0.6    l-0.6-1.4c0.4-0.3,1-0.5,1.6-0.7S212.5,199,213,199z M212.6,205.7c0.5,0,1-0.2,1.3-0.5s0.5-0.8,0.5-1.4v-0.3h-0.3    c-0.7,0-1.3,0-1.7,0.1s-0.7,0.2-0.8,0.3s-0.3,0.4-0.3,0.7c0,0.3,0.1,0.6,0.4,0.8S212.2,205.7,212.6,205.7z M225.5,207v-9.6h-3.7    v-1.7h9.4v1.7h-3.7v9.6H225.5z M238,199.2h2l-4.7,10.7h-2l1.4-3.2l-3.3-7.5h2.1l2.2,5.5L238,199.2z M245.4,199    c0.7,0,1.3,0.2,1.8,0.5s0.9,0.8,1.2,1.4s0.4,1.3,0.4,2.2s-0.1,1.5-0.4,2.1s-0.7,1.1-1.2,1.4s-1.1,0.5-1.8,0.5    c-0.6,0-1.1-0.1-1.5-0.4s-0.8-0.6-1-1v4.1h-2v-10.7h2v1.2c0.2-0.4,0.6-0.8,1-1S244.8,199,245.4,199z M244.9,205.6    c0.6,0,1.1-0.2,1.5-0.6s0.5-1,0.5-1.8c0-0.8-0.2-1.4-0.5-1.9s-0.8-0.7-1.5-0.7c-0.6,0-1.1,0.2-1.5,0.7s-0.5,1.1-0.5,1.9    c0,0.8,0.2,1.4,0.5,1.9S244.2,205.6,244.9,205.6L244.9,205.6z M257.4,203.4H252c0.1,0.7,0.3,1.3,0.7,1.6s0.9,0.5,1.6,0.5    c0.9,0,1.7-0.3,2.4-0.8l0.6,1.4c-0.4,0.3-0.8,0.5-1.4,0.7s-1.1,0.3-1.7,0.3c-1.3,0-2.3-0.4-3-1.1s-1.1-1.7-1.1-3    c0-0.8,0.2-1.5,0.5-2.1s0.8-1.1,1.4-1.4s1.2-0.5,2-0.5c1.1,0,1.9,0.3,2.6,1s0.9,1.6,0.9,2.9V203.4z M253.9,200.4    c-0.5,0-1,0.2-1.3,0.5s-0.5,0.8-0.6,1.5h3.6c0-0.7-0.2-1.1-0.5-1.5S254.5,200.4,253.9,200.4z"/>
		<path class="st1" d="M210,260c0.7,0,1.3,0.2,1.8,0.5s0.9,0.8,1.2,1.4s0.4,1.3,0.4,2.1s-0.1,1.5-0.4,2.2s-0.7,1.1-1.2,1.4    s-1.1,0.5-1.8,0.5c-0.6,0-1.1-0.1-1.5-0.4s-0.8-0.6-1-1v1.3h-2v-11.3h2v4.6c0.2-0.4,0.6-0.8,1-1S209.4,260,210,260z M209.5,266.6    c0.6,0,1.1-0.2,1.5-0.7s0.5-1.1,0.5-1.9c0-0.8-0.2-1.4-0.5-1.8s-0.8-0.6-1.5-0.6s-1.1,0.2-1.5,0.6s-0.5,1.1-0.5,1.9    s0.2,1.4,0.5,1.9S208.8,266.6,209.5,266.6L209.5,266.6z M218.7,268.1c-0.8,0-1.5-0.2-2.1-0.5s-1.1-0.8-1.4-1.4s-0.5-1.3-0.5-2.2    s0.2-1.5,0.5-2.2s0.8-1.1,1.4-1.4s1.3-0.5,2.1-0.5s1.5,0.2,2.1,0.5s1.1,0.8,1.4,1.4s0.5,1.3,0.5,2.2s-0.2,1.5-0.5,2.2    s-0.8,1.1-1.4,1.4S219.5,268.1,218.7,268.1z M218.7,266.6c0.7,0,1.1-0.2,1.5-0.6s0.5-1.1,0.5-1.9c0-0.8-0.2-1.4-0.5-1.9    s-0.8-0.6-1.5-0.6s-1.1,0.2-1.5,0.6s-0.5,1.1-0.5,1.9c0,0.8,0.2,1.5,0.5,1.9S218,266.6,218.7,266.6z M227.9,268.1    c-0.8,0-1.5-0.2-2.1-0.5s-1.1-0.8-1.4-1.4s-0.5-1.3-0.5-2.2s0.2-1.5,0.5-2.2s0.8-1.1,1.4-1.4s1.3-0.5,2.1-0.5s1.5,0.2,2.1,0.5    s1.1,0.8,1.4,1.4s0.5,1.3,0.5,2.2s-0.2,1.5-0.5,2.2s-0.8,1.1-1.4,1.4S228.7,268.1,227.9,268.1z M227.9,266.6    c0.7,0,1.1-0.2,1.5-0.6s0.5-1.1,0.5-1.9c0-0.8-0.2-1.4-0.5-1.9s-0.8-0.6-1.5-0.6s-1.1,0.2-1.5,0.6s-0.5,1.1-0.5,1.9    c0,0.8,0.2,1.5,0.5,1.9S227.2,266.6,227.9,266.6z M233.5,268v-11.3h2V268H233.5z"/>
		<path class="st1" d="M416.5,266.3h2.4v1.7h-7v-1.7h2.4v-7.3l-1.9,1.2l-0.8-1.5l3.3-2h1.5L416.5,266.3z"/>
		<path class="st1" d="M653.9,268.1c-1.3,0-2.4-0.5-3.1-1.5s-1.1-2.4-1.1-4.3c0-1.9,0.4-3.3,1.1-4.3s1.7-1.5,3.1-1.5    s2.4,0.5,3.1,1.5s1.1,2.4,1.1,4.3c0,1.9-0.4,3.3-1.1,4.3S655.2,268.1,653.9,268.1L653.9,268.1z M653.9,266.5c0.7,0,1.3-0.3,1.6-1    s0.5-1.7,0.5-3.2c0-1.4-0.2-2.5-0.5-3.1s-0.9-1-1.6-1s-1.3,0.3-1.6,1s-0.5,1.7-0.5,3.1c0,1.5,0.2,2.5,0.5,3.2    S653.1,266.5,653.9,266.5z M666.7,271.1c-0.8-1.3-1.3-2.6-1.6-3.7s-0.5-2.4-0.5-3.6s0.2-2.5,0.5-3.6s0.9-2.4,1.6-3.7l1.3,0.5    c-0.5,1.3-0.9,2.5-1.1,3.5s-0.3,2.1-0.3,3.3s0.1,2.2,0.3,3.3s0.6,2.2,1.1,3.5L666.7,271.1z M672.2,260.2h2.1v1.5h-2.1v6.3h-2v-6.3    h-1.5v-1.5h1.5c0-1.1,0.3-2,0.9-2.5s1.5-0.9,2.7-0.9l0.8,0l0.1,1.5l-0.8,0c-0.6,0-1.1,0.2-1.3,0.4s-0.4,0.7-0.4,1.2L672.2,260.2z     M678.8,260c1.1,0,1.9,0.3,2.4,0.8s0.8,1.4,0.8,2.5v4.8h-1.9v-1.2c-0.2,0.4-0.5,0.7-0.9,1s-0.8,0.4-1.4,0.4c-0.5,0-1-0.1-1.4-0.3    s-0.8-0.5-1-0.9s-0.4-0.8-0.4-1.2c0-0.6,0.1-1,0.4-1.4s0.8-0.6,1.4-0.7s1.6-0.2,2.7-0.2h0.4V263c0-0.5-0.1-0.9-0.3-1.2    s-0.6-0.4-1.1-0.4c-0.4,0-0.9,0.1-1.3,0.2s-0.9,0.3-1.3,0.6l-0.6-1.4c0.4-0.3,1-0.5,1.6-0.7S678.2,260,678.8,260L678.8,260z     M678.3,266.7c0.5,0,1-0.2,1.3-0.5s0.5-0.8,0.5-1.4v-0.3h-0.3c-0.7,0-1.3,0-1.7,0.1s-0.7,0.2-0.8,0.3s-0.3,0.4-0.3,0.7    c0,0.3,0.1,0.6,0.4,0.8S677.9,266.7,678.3,266.7z M684,268v-11.3h2V268H684z M691,268.1c-0.7,0-1.3-0.1-1.9-0.3s-1.1-0.4-1.5-0.7    l0.6-1.4c0.8,0.6,1.8,0.9,2.9,0.9c0.5,0,0.8-0.1,1-0.2s0.4-0.4,0.4-0.6c0-0.2-0.1-0.4-0.2-0.5s-0.5-0.2-0.9-0.4l-1.3-0.3    c-0.7-0.2-1.3-0.4-1.6-0.8s-0.5-0.8-0.5-1.4c0-0.5,0.1-0.9,0.4-1.3s0.7-0.7,1.1-0.9s1-0.3,1.7-0.3c0.6,0,1.1,0.1,1.6,0.3    s1,0.4,1.4,0.7l-0.6,1.4c-0.8-0.6-1.6-0.9-2.4-0.9c-0.4,0-0.8,0.1-1,0.2s-0.4,0.4-0.4,0.7c0,0.2,0.1,0.4,0.2,0.5s0.4,0.2,0.7,0.3    l1.3,0.3c0.8,0.2,1.3,0.4,1.7,0.8s0.5,0.9,0.5,1.4c0,0.7-0.3,1.3-0.9,1.7S692,268.1,691,268.1L691,268.1z M702.7,264.4h-5.3    c0.1,0.7,0.3,1.3,0.7,1.6s0.9,0.5,1.6,0.5c0.9,0,1.7-0.3,2.4-0.8l0.6,1.4c-0.4,0.3-0.8,0.5-1.4,0.7s-1.1,0.3-1.7,0.3    c-1.3,0-2.3-0.4-3-1.1s-1.1-1.7-1.1-3c0-0.8,0.2-1.5,0.5-2.1s0.8-1.1,1.4-1.4s1.2-0.5,2-0.5c1.1,0,1.9,0.3,2.6,1s0.9,1.6,0.9,2.9    L702.7,264.4z M699.3,261.4c-0.5,0-1,0.2-1.3,0.5s-0.5,0.8-0.6,1.5h3.6c0-0.7-0.2-1.1-0.5-1.5S699.8,261.4,699.3,261.4    L699.3,261.4z M703.9,270.6c0.5-1.3,0.9-2.5,1.1-3.5s0.3-2.1,0.3-3.3s-0.1-2.2-0.3-3.3s-0.6-2.2-1.1-3.5l1.3-0.5    c0.8,1.3,1.3,2.6,1.6,3.7s0.5,2.4,0.5,3.6s-0.2,2.5-0.5,3.6s-0.9,2.4-1.6,3.7L703.9,270.6z"/>
		<path class="st1" d="M905.8,266.3h2.4v1.7h-7v-1.7h2.4v-7.3l-1.9,1.2l-0.8-1.5l3.3-2h1.5V266.3z M917.2,271.1    c-0.8-1.3-1.3-2.6-1.6-3.7s-0.5-2.4-0.5-3.6s0.2-2.5,0.5-3.6s0.9-2.4,1.6-3.7l1.3,0.5c-0.5,1.3-0.9,2.5-1.1,3.5s-0.3,2.1-0.3,3.3    s0.1,2.2,0.3,3.3s0.6,2.2,1.1,3.5L917.2,271.1z M924.1,266.6c0.2,0,0.5,0,0.7,0l-0.1,1.5c-0.3,0-0.6,0-0.9,0    c-1.1,0-1.9-0.3-2.4-0.8s-0.8-1.3-0.8-2.3v-3.4h-1.5v-1.5h1.5v-2.3h2v2.3h2.1v1.5h-2.1v3.4C922.7,266.1,923.1,266.6,924.1,266.6z     M931.2,261.6l-1.2,0.1c-1.3,0.1-2,0.8-2,2v4.2h-2v-7.8h1.9v1.4c0.4-0.9,1.2-1.5,2.5-1.5l0.6,0L931.2,261.6z M939.3,260.2v7.8h-2    v-1.2c-0.2,0.4-0.6,0.8-1,1s-0.9,0.3-1.4,0.3c-1.9,0-2.9-1.1-2.9-3.2v-4.7h2v4.7c0,0.6,0.1,1,0.3,1.2s0.6,0.4,1.1,0.4    c0.6,0,1-0.2,1.3-0.6s0.5-0.9,0.5-1.5v-4.4H939.3z M948.3,264.4h-5.3c0.1,0.7,0.3,1.3,0.7,1.6s0.9,0.5,1.6,0.5    c0.9,0,1.7-0.3,2.4-0.8l0.6,1.4c-0.4,0.3-0.8,0.5-1.4,0.7s-1.1,0.3-1.7,0.3c-1.3,0-2.3-0.4-3-1.1s-1.1-1.7-1.1-3    c0-0.8,0.2-1.5,0.5-2.1s0.8-1.1,1.4-1.4s1.2-0.5,2-0.5c1.1,0,1.9,0.3,2.6,1s0.9,1.6,0.9,2.9L948.3,264.4z M944.8,261.4    c-0.5,0-1,0.2-1.3,0.5s-0.5,0.8-0.6,1.5h3.6c0-0.7-0.2-1.1-0.5-1.5S945.4,261.4,944.8,261.4L944.8,261.4z M949.4,270.6    c0.5-1.3,0.9-2.5,1.1-3.5s0.3-2.1,0.3-3.3s-0.1-2.2-0.3-3.3s-0.6-2.2-1.1-3.5l1.3-0.5c0.8,1.3,1.3,2.6,1.6,3.7s0.5,2.4,0.5,3.6    s-0.2,2.5-0.5,3.6s-0.9,2.4-1.6,3.7L949.4,270.6z"/>
		<path class="st1" d="M202.3,449v-7.8h2v7.8H202.3z M202.2,437.5h2.2v2h-2.2V437.5z M210.9,441c0.9,0,1.6,0.3,2.1,0.8    s0.7,1.3,0.7,2.4v4.8h-2v-4.7c0-0.6-0.1-1.1-0.3-1.3s-0.6-0.4-1.1-0.4c-0.6,0-1,0.2-1.4,0.5s-0.5,0.8-0.5,1.5v4.4h-2v-7.8h2v1.2    c0.3-0.4,0.6-0.8,1.1-1S210.3,441,210.9,441z M219.7,447.6c0.2,0,0.5,0,0.7,0l-0.1,1.5c-0.3,0-0.6,0-0.9,0c-1.1,0-1.9-0.3-2.4-0.8    s-0.8-1.3-0.8-2.3v-3.4h-1.5v-1.5h1.5v-2.3h2v2.3h2.1v1.5h-2.1v3.4C218.2,447.1,218.7,447.6,219.7,447.6L219.7,447.6z     M227.1,443.2c0.7,0.2,1.2,0.5,1.5,1s0.5,1.1,0.5,1.8c0,1-0.4,1.8-1.1,2.3s-1.7,0.9-2.9,0.9c-0.8,0-1.5-0.1-2.2-0.4    s-1.3-0.6-1.7-1l0.7-1.5c1,0.8,2,1.2,3.2,1.2c0.7,0,1.2-0.1,1.6-0.4s0.5-0.7,0.5-1.3c0-0.6-0.2-1-0.5-1.3s-0.9-0.4-1.7-0.4h-1.5    v-1.6h1.2c1.5,0,2.2-0.5,2.2-1.6c0-0.5-0.2-0.9-0.5-1.2s-0.8-0.4-1.3-0.4c-0.5,0-1,0.1-1.5,0.3s-1,0.5-1.5,0.9l-0.7-1.5    c0.4-0.4,1-0.7,1.7-1s1.4-0.4,2.1-0.4c1.1,0,2,0.3,2.7,0.8s1,1.3,1,2.2c0,0.6-0.2,1.2-0.5,1.6S227.7,443,227.1,443.2L227.1,443.2z     M238.9,447.3v1.7h-7.6v-1.5l3.8-4.1c0.4-0.5,0.8-0.9,1-1.4s0.3-0.8,0.3-1.2c0-0.5-0.1-0.9-0.4-1.2s-0.7-0.4-1.3-0.4    c-1,0-2,0.4-3.1,1.2l-0.7-1.5c0.4-0.4,1-0.7,1.7-1s1.4-0.4,2.1-0.4c1.1,0,2,0.3,2.7,0.8s1,1.3,1,2.2c0,0.7-0.1,1.3-0.4,1.8    s-0.7,1.2-1.4,1.9l-2.8,2.9L238.9,447.3z"/>
		<path class="st1" d="M411.9,443.2c0.7,0.2,1.2,0.5,1.5,1s0.5,1.1,0.5,1.8c0,1-0.4,1.8-1.1,2.3s-1.7,0.9-2.9,0.9    c-0.8,0-1.5-0.1-2.2-0.4s-1.3-0.6-1.7-1l0.7-1.5c1,0.8,2,1.2,3.2,1.2c0.7,0,1.2-0.1,1.6-0.4s0.5-0.7,0.5-1.3c0-0.6-0.2-1-0.5-1.3    s-0.9-0.4-1.7-0.4h-1.5v-1.6h1.2c1.5,0,2.2-0.5,2.2-1.6c0-0.5-0.2-0.9-0.5-1.2s-0.8-0.4-1.3-0.4c-0.5,0-1,0.1-1.5,0.3    s-1,0.5-1.5,0.9l-0.7-1.5c0.4-0.4,1-0.7,1.7-1s1.4-0.4,2.1-0.4c1.1,0,2,0.3,2.7,0.8s1,1.3,1,2.2c0,0.6-0.2,1.2-0.5,1.6    S412.5,443,411.9,443.2L411.9,443.2z M423.7,447.3v1.7h-7.6v-1.5l3.8-4.1c0.4-0.5,0.8-0.9,1-1.4s0.3-0.8,0.3-1.2    c0-0.5-0.1-0.9-0.4-1.2s-0.7-0.4-1.3-0.4c-1,0-2,0.4-3.1,1.2l-0.7-1.5c0.4-0.4,1-0.7,1.7-1s1.4-0.4,2.1-0.4c1.1,0,2,0.3,2.7,0.8    s1,1.3,1,2.2c0,0.7-0.1,1.3-0.4,1.8s-0.7,1.2-1.4,1.9l-2.8,2.9L423.7,447.3z"/>
		<path class="st1" d="M622.7,445.5v-1.6h4.8v1.6H622.7z M637.3,447.3v1.7h-7.6v-1.5l3.8-4.1c0.4-0.5,0.8-0.9,1-1.4s0.3-0.8,0.3-1.2    c0-0.5-0.1-0.9-0.4-1.2s-0.7-0.4-1.3-0.4c-1,0-2,0.4-3.1,1.2l-0.7-1.5c0.4-0.4,1-0.7,1.7-1s1.4-0.4,2.1-0.4c1.1,0,2,0.3,2.7,0.8    s1,1.3,1,2.2c0,0.7-0.1,1.3-0.4,1.8s-0.7,1.2-1.4,1.9l-2.8,2.9L637.3,447.3z M641.2,446.8v1.5c0,0.6-0.1,1.1-0.3,1.5    s-0.5,0.9-1,1.4l-0.8-0.6c0.5-0.5,0.8-1,0.9-1.5h-1v-2.2L641.2,446.8z M648.4,447.3h2.4v1.7h-7v-1.7h2.4v-7.3l-1.9,1.2l-0.8-1.5    l3.3-2h1.5V447.3z M660.9,445.2v1.6h-1.6v2.2h-2v-2.2h-4.9v-1.5l5.2-7.6h1.7v7.5L660.9,445.2z M654.3,445.2h3v-4.3L654.3,445.2z     M662.2,437.7h7.9v1.5l-5.1,9.7h-2.2l5.1-9.6h-5.6V437.7z M674,446.8v1.5c0,0.6-0.1,1.1-0.3,1.5s-0.5,0.9-1,1.4l-0.8-0.6    c0.5-0.5,0.8-1,0.9-1.5h-1v-2.2L674,446.8z M684,445.2v1.6h-1.6v2.2h-2v-2.2h-4.9v-1.5l5.2-7.6h1.7v7.5H684z M677.5,445.2h3v-4.3    L677.5,445.2z M691.4,443.2c0.7,0.2,1.2,0.5,1.5,1s0.5,1.1,0.5,1.8c0,1-0.4,1.8-1.1,2.3s-1.8,0.8-3.1,0.8s-2.4-0.3-3.1-0.8    S685,447,685,446c0-0.7,0.2-1.3,0.5-1.8s0.9-0.8,1.5-1c-0.6-0.2-1-0.5-1.3-1s-0.5-1-0.5-1.6c0-0.9,0.4-1.7,1.1-2.2    s1.7-0.8,2.9-0.8s2.2,0.3,2.9,0.8s1.1,1.3,1.1,2.2c0,0.6-0.2,1.2-0.5,1.6S692,443,691.4,443.2L691.4,443.2z M689.3,439.2    c-1.3,0-2,0.5-2,1.6c0,0.5,0.2,1,0.5,1.2s0.8,0.4,1.5,0.4s1.2-0.1,1.5-0.4s0.5-0.7,0.5-1.2C691.3,439.7,690.6,439.2,689.3,439.2z     M689.3,447.5c1.5,0,2.3-0.6,2.3-1.7s-0.8-1.7-2.3-1.7s-2.3,0.6-2.3,1.7S687.7,447.5,689.3,447.5z M700.6,443.2    c0.7,0.2,1.2,0.5,1.5,1s0.5,1.1,0.5,1.8c0,1-0.4,1.8-1.1,2.3s-1.7,0.9-2.9,0.9c-0.8,0-1.5-0.1-2.2-0.4s-1.3-0.6-1.7-1l0.7-1.5    c1,0.8,2,1.2,3.2,1.2c0.7,0,1.2-0.1,1.6-0.4s0.5-0.7,0.5-1.3c0-0.6-0.2-1-0.5-1.3s-0.9-0.4-1.7-0.4H697v-1.6h1.2    c1.5,0,2.2-0.5,2.2-1.6c0-0.5-0.2-0.9-0.5-1.2s-0.8-0.4-1.3-0.4c-0.5,0-1,0.1-1.5,0.3s-1,0.5-1.5,0.9l-0.7-1.5    c0.4-0.4,1-0.7,1.7-1s1.4-0.4,2.1-0.4c1.1,0,2,0.3,2.7,0.8s1,1.3,1,2.2c0,0.6-0.2,1.2-0.5,1.6S701.2,443,700.6,443.2L700.6,443.2z     M706.8,446.8v1.5c0,0.6-0.1,1.1-0.3,1.5s-0.5,0.9-1,1.4l-0.8-0.6c0.5-0.5,0.8-1,0.9-1.5h-1v-2.2L706.8,446.8z M713.1,441.8    c0.7,0,1.3,0.2,1.8,0.5s0.9,0.7,1.2,1.3s0.4,1.2,0.4,1.9c0,0.7-0.2,1.4-0.5,1.9s-0.8,1-1.3,1.3s-1.2,0.5-2,0.5    c-1.4,0-2.5-0.5-3.3-1.4s-1.2-2.3-1.2-4.1c0-1.2,0.2-2.3,0.6-3.2s0.9-1.6,1.6-2.1s1.5-0.7,2.5-0.7c0.7,0,1.3,0.1,2,0.3    s1.2,0.6,1.7,1l-0.7,1.5c-1-0.8-1.9-1.2-2.9-1.2c-0.8,0-1.5,0.3-1.9,1s-0.7,1.7-0.7,3c0.2-0.5,0.6-0.9,1.1-1.1    S712.5,441.8,713.1,441.8L713.1,441.8z M712.7,447.5c0.6,0,1.1-0.2,1.4-0.6s0.5-0.9,0.5-1.5c0-0.6-0.2-1.1-0.5-1.5    s-0.8-0.6-1.4-0.6s-1.1,0.2-1.4,0.6s-0.6,0.9-0.6,1.5c0,0.6,0.2,1.1,0.6,1.5S712.1,447.5,712.7,447.5z M726.4,445.2v1.6h-1.6v2.2    h-2v-2.2h-4.9v-1.5l5.2-7.6h1.7v7.5L726.4,445.2z M719.8,445.2h3v-4.3L719.8,445.2z M733.8,443.2c0.7,0.2,1.2,0.5,1.5,1    s0.5,1.1,0.5,1.8c0,1-0.4,1.8-1.1,2.3s-1.8,0.8-3.1,0.8s-2.4-0.3-3.1-0.8s-1.1-1.3-1.1-2.3c0-0.7,0.2-1.3,0.5-1.8s0.9-0.8,1.5-1    c-0.6-0.2-1-0.5-1.3-1s-0.5-1-0.5-1.6c0-0.9,0.4-1.7,1.1-2.2s1.7-0.8,2.9-0.8s2.2,0.3,2.9,0.8s1.1,1.3,1.1,2.2    c0,0.6-0.2,1.2-0.5,1.6S734.3,443,733.8,443.2L733.8,443.2z M731.6,439.2c-1.3,0-2,0.5-2,1.6c0,0.5,0.2,1,0.5,1.2s0.8,0.4,1.5,0.4    s1.2-0.1,1.5-0.4s0.5-0.7,0.5-1.2C733.6,439.7,733,439.2,731.6,439.2z M731.6,447.5c1.5,0,2.3-0.6,2.3-1.7s-0.8-1.7-2.3-1.7    s-2.3,0.6-2.3,1.7S730.1,447.5,731.6,447.5z"/>
		<path class="st1" d="M881.8,447.3v1.7h-7.6v-1.5l3.8-4.1c0.4-0.5,0.8-0.9,1-1.4s0.3-0.8,0.3-1.2c0-0.5-0.1-0.9-0.4-1.2    s-0.7-0.4-1.3-0.4c-1,0-2,0.4-3.1,1.2l-0.7-1.5c0.4-0.4,1-0.7,1.7-1s1.4-0.4,2.1-0.4c1.1,0,2,0.3,2.7,0.8s1,1.3,1,2.2    c0,0.7-0.1,1.3-0.4,1.8s-0.7,1.2-1.4,1.9l-2.8,2.9L881.8,447.3z M885.8,446.8v1.5c0,0.6-0.1,1.1-0.3,1.5s-0.5,0.9-1,1.4l-0.8-0.6    c0.5-0.5,0.8-1,0.9-1.5h-1v-2.2L885.8,446.8z M893,447.3h2.4v1.7h-7v-1.7h2.4v-7.3l-1.9,1.2l-0.8-1.5l3.3-2h1.5V447.3z     M905.4,445.2v1.6h-1.6v2.2h-2v-2.2h-4.9v-1.5l5.2-7.6h1.7v7.5L905.4,445.2z M898.8,445.2h3v-4.3L898.8,445.2z M906.7,437.7h7.9    v1.5l-5.1,9.7h-2.2l5.1-9.6h-5.6V437.7z M918.5,446.8v1.5c0,0.6-0.1,1.1-0.3,1.5s-0.5,0.9-1,1.4l-0.8-0.6c0.5-0.5,0.8-1,0.9-1.5    h-1v-2.2L918.5,446.8z M928.6,445.2v1.6H927v2.2h-2v-2.2h-4.9v-1.5l5.2-7.6h1.7v7.5H928.6z M922,445.2h3v-4.3L922,445.2z     M936,443.2c0.7,0.2,1.2,0.5,1.5,1s0.5,1.1,0.5,1.8c0,1-0.4,1.8-1.1,2.3s-1.8,0.8-3.1,0.8s-2.4-0.3-3.1-0.8s-1.1-1.3-1.1-2.3    c0-0.7,0.2-1.3,0.5-1.8s0.9-0.8,1.5-1c-0.6-0.2-1-0.5-1.3-1s-0.5-1-0.5-1.6c0-0.9,0.4-1.7,1.1-2.2s1.7-0.8,2.9-0.8    s2.2,0.3,2.9,0.8s1.1,1.3,1.1,2.2c0,0.6-0.2,1.2-0.5,1.6S936.5,443,936,443.2L936,443.2z M933.8,439.2c-1.3,0-2,0.5-2,1.6    c0,0.5,0.2,1,0.5,1.2s0.8,0.4,1.5,0.4s1.2-0.1,1.5-0.4s0.5-0.7,0.5-1.2C935.8,439.7,935.1,439.2,933.8,439.2z M933.8,447.5    c1.5,0,2.3-0.6,2.3-1.7s-0.8-1.7-2.3-1.7s-2.3,0.6-2.3,1.7S932.3,447.5,933.8,447.5z M945.1,443.2c0.7,0.2,1.2,0.5,1.5,1    s0.5,1.1,0.5,1.8c0,1-0.4,1.8-1.1,2.3s-1.7,0.9-2.9,0.9c-0.8,0-1.5-0.1-2.2-0.4s-1.3-0.6-1.7-1l0.7-1.5c1,0.8,2,1.2,3.2,1.2    c0.7,0,1.2-0.1,1.6-0.4s0.5-0.7,0.5-1.3c0-0.6-0.2-1-0.5-1.3s-0.9-0.4-1.7-0.4h-1.5v-1.6h1.2c1.5,0,2.2-0.5,2.2-1.6    c0-0.5-0.2-0.9-0.5-1.2s-0.8-0.4-1.3-0.4c-0.5,0-1,0.1-1.5,0.3s-1,0.5-1.5,0.9l-0.7-1.5c0.4-0.4,1-0.7,1.7-1s1.4-0.4,2.1-0.4    c1.1,0,2,0.3,2.7,0.8s1,1.3,1,2.2c0,0.6-0.2,1.2-0.5,1.6S945.7,443,945.1,443.2L945.1,443.2z M951.3,446.8v1.5    c0,0.6-0.1,1.1-0.3,1.5s-0.5,0.9-1,1.4l-0.8-0.6c0.5-0.5,0.8-1,0.9-1.5h-1v-2.2L951.3,446.8z M957.7,441.8c0.7,0,1.3,0.2,1.8,0.5    s0.9,0.7,1.2,1.3s0.4,1.2,0.4,1.9c0,0.7-0.2,1.4-0.5,1.9s-0.8,1-1.3,1.3s-1.2,0.5-2,0.5c-1.4,0-2.5-0.5-3.3-1.4s-1.2-2.3-1.2-4.1    c0-1.2,0.2-2.3,0.6-3.2s0.9-1.6,1.6-2.1s1.5-0.7,2.5-0.7c0.7,0,1.3,0.1,2,0.3s1.2,0.6,1.7,1l-0.7,1.5c-1-0.8-1.9-1.2-2.9-1.2    c-0.8,0-1.5,0.3-1.9,1s-0.7,1.7-0.7,3c0.2-0.5,0.6-0.9,1.1-1.1S957.1,441.8,957.7,441.8L957.7,441.8z M957.2,447.5    c0.6,0,1.1-0.2,1.4-0.6s0.5-0.9,0.5-1.5c0-0.6-0.2-1.1-0.5-1.5s-0.8-0.6-1.4-0.6s-1.1,0.2-1.4,0.6s-0.6,0.9-0.6,1.5    c0,0.6,0.2,1.1,0.6,1.5S956.6,447.5,957.2,447.5z M970.9,445.2v1.6h-1.6v2.2h-2v-2.2h-4.9v-1.5l5.2-7.6h1.7v7.5L970.9,445.2z     M964.4,445.2h3v-4.3L964.4,445.2z M972.2,437.7h7.9v1.5L975,449h-2.2l5.1-9.6h-5.6V437.7z"/>
		<path class="st1" d="M204.3,624.2v7.8h-2v-1.2c-0.2,0.4-0.6,0.8-1,1s-0.9,0.3-1.4,0.3c-1.9,0-2.9-1.1-2.9-3.2v-4.7h2v4.7    c0,0.6,0.1,1,0.3,1.2s0.6,0.4,1.1,0.4c0.6,0,1-0.2,1.3-0.6s0.5-0.9,0.5-1.5v-4.4L204.3,624.2z M206.4,632v-7.8h2v7.8H206.4z     M206.3,620.5h2.2v2h-2.2V620.5z M215,624c0.9,0,1.6,0.3,2.1,0.8s0.7,1.3,0.7,2.4v4.8h-2v-4.7c0-0.6-0.1-1.1-0.3-1.3    s-0.6-0.4-1.1-0.4c-0.6,0-1,0.2-1.4,0.5s-0.5,0.8-0.5,1.5v4.4h-2v-7.8h2v1.2c0.3-0.4,0.6-0.8,1.1-1S214.5,624,215,624L215,624z     M223.8,630.6c0.2,0,0.5,0,0.7,0l-0.1,1.5c-0.3,0-0.6,0-0.9,0c-1.1,0-1.9-0.3-2.4-0.8s-0.8-1.3-0.8-2.3v-3.4h-1.5v-1.5h1.5v-2.3h2    v2.3h2.1v1.5h-2.1v3.4C222.4,630.1,222.9,630.6,223.8,630.6L223.8,630.6z M231,630.3h2.4v1.7h-7v-1.7h2.4v-7.3l-1.9,1.2l-0.8-1.5    l3.3-2h1.5L231,630.3z M239.8,624.8c0.7,0,1.3,0.2,1.8,0.5s0.9,0.7,1.2,1.3s0.4,1.2,0.4,1.9c0,0.7-0.2,1.4-0.5,1.9s-0.8,1-1.3,1.3    s-1.2,0.5-2,0.5c-1.4,0-2.5-0.5-3.3-1.4s-1.2-2.3-1.2-4.1c0-1.2,0.2-2.3,0.6-3.2s0.9-1.6,1.6-2.1s1.5-0.7,2.5-0.7    c0.7,0,1.3,0.1,2,0.3s1.2,0.6,1.7,1l-0.7,1.5c-1-0.8-1.9-1.2-2.9-1.2c-0.8,0-1.5,0.3-1.9,1s-0.7,1.7-0.7,3    c0.2-0.5,0.6-0.9,1.1-1.1S239.2,624.8,239.8,624.8L239.8,624.8z M239.4,630.5c0.6,0,1.1-0.2,1.4-0.6s0.5-0.9,0.5-1.5    c0-0.6-0.2-1.1-0.5-1.5s-0.8-0.6-1.4-0.6s-1.1,0.2-1.4,0.6s-0.6,0.9-0.6,1.5c0,0.6,0.2,1.1,0.6,1.5S238.8,630.5,239.4,630.5    L239.4,630.5z"/>
		<path class="st1" d="M411.7,630.3h2.4v1.7h-7v-1.7h2.4v-7.3l-1.9,1.2l-0.8-1.5l3.3-2h1.5L411.7,630.3z M420.5,624.8    c0.7,0,1.3,0.2,1.8,0.5s0.9,0.7,1.2,1.3s0.4,1.2,0.4,1.9c0,0.7-0.2,1.4-0.5,1.9s-0.8,1-1.3,1.3s-1.2,0.5-2,0.5    c-1.4,0-2.5-0.5-3.3-1.4s-1.2-2.3-1.2-4.1c0-1.2,0.2-2.3,0.6-3.2s0.9-1.6,1.6-2.1s1.5-0.7,2.5-0.7c0.7,0,1.3,0.1,2,0.3    s1.2,0.6,1.7,1l-0.7,1.5c-1-0.8-1.9-1.2-2.9-1.2c-0.8,0-1.5,0.3-1.9,1s-0.7,1.7-0.7,3c0.2-0.5,0.6-0.9,1.1-1.1    S419.9,624.8,420.5,624.8L420.5,624.8z M420.1,630.5c0.6,0,1.1-0.2,1.4-0.6s0.5-0.9,0.5-1.5c0-0.6-0.2-1.1-0.5-1.5    s-0.8-0.6-1.4-0.6s-1.1,0.2-1.4,0.6s-0.6,0.9-0.6,1.5c0,0.6,0.2,1.1,0.6,1.5S419.5,630.5,420.1,630.5L420.1,630.5z"/>
		<path class="st1" d="M679,632.1c-1.3,0-2.4-0.5-3.1-1.5s-1.1-2.4-1.1-4.3c0-1.9,0.4-3.3,1.1-4.3s1.7-1.5,3.1-1.5s2.4,0.5,3.1,1.5    s1.1,2.4,1.1,4.3c0,1.9-0.4,3.3-1.1,4.3S680.3,632.1,679,632.1z M679,630.5c0.7,0,1.3-0.3,1.6-1s0.5-1.7,0.5-3.2    c0-1.4-0.2-2.5-0.5-3.1s-0.9-1-1.6-1s-1.3,0.3-1.6,1s-0.5,1.7-0.5,3.1c0,1.5,0.2,2.5,0.5,3.2S678.3,630.5,679,630.5z"/>
		<path class="st1" d="M906.5,624.8c0.7,0,1.3,0.2,1.8,0.5s0.9,0.7,1.2,1.3s0.4,1.2,0.4,1.9c0,0.7-0.2,1.4-0.5,1.9s-0.8,1-1.3,1.3    s-1.2,0.5-2,0.5c-1.4,0-2.5-0.5-3.3-1.4s-1.2-2.3-1.2-4.1c0-1.2,0.2-2.3,0.6-3.2s0.9-1.6,1.6-2.1s1.5-0.7,2.5-0.7    c0.7,0,1.3,0.1,2,0.3s1.2,0.6,1.7,1l-0.7,1.5c-1-0.8-1.9-1.2-2.9-1.2c-0.8,0-1.5,0.3-1.9,1s-0.7,1.7-0.7,3    c0.2-0.5,0.6-0.9,1.1-1.1S905.9,624.8,906.5,624.8L906.5,624.8z M906.1,630.5c0.6,0,1.1-0.2,1.4-0.6s0.5-0.9,0.5-1.5    c0-0.6-0.2-1.1-0.5-1.5s-0.8-0.6-1.4-0.6s-1.1,0.2-1.4,0.6s-0.6,0.9-0.6,1.5c0,0.6,0.2,1.1,0.6,1.5S905.5,630.5,906.1,630.5    L906.1,630.5z M916,624.8c0.7,0,1.3,0.2,1.9,0.5s1,0.7,1.2,1.3s0.4,1.2,0.4,1.9c0,0.7-0.2,1.4-0.5,2s-0.8,1-1.4,1.3    s-1.4,0.5-2.2,0.5c-0.7,0-1.4-0.1-2.1-0.4s-1.3-0.6-1.7-1l0.7-1.5c1,0.8,2.1,1.2,3.1,1.2c0.7,0,1.2-0.2,1.6-0.5s0.6-0.9,0.6-1.5    c0-0.6-0.2-1.1-0.6-1.5s-0.9-0.6-1.5-0.6c-0.4,0-0.9,0.1-1.2,0.2s-0.7,0.4-1,0.7H912v-6.6h7.1v1.6H914v3    C914.6,625,915.2,624.8,916,624.8L916,624.8z M923.3,629.8v1.5c0,0.6-0.1,1.1-0.3,1.5s-0.5,0.9-1,1.4l-0.8-0.6    c0.5-0.5,0.8-1,0.9-1.5h-1v-2.2H923.3z M929.6,624.8c0.7,0,1.3,0.2,1.9,0.5s1,0.7,1.2,1.3s0.4,1.2,0.4,1.9c0,0.7-0.2,1.4-0.5,2    s-0.8,1-1.4,1.3s-1.4,0.5-2.2,0.5c-0.7,0-1.4-0.1-2.1-0.4s-1.3-0.6-1.7-1l0.7-1.5c1,0.8,2.1,1.2,3.1,1.2c0.7,0,1.2-0.2,1.6-0.5    s0.6-0.9,0.6-1.5c0-0.6-0.2-1.1-0.6-1.5s-0.9-0.6-1.5-0.6c-0.4,0-0.9,0.1-1.2,0.2s-0.7,0.4-1,0.7h-1.2v-6.6h7.1v1.6h-5.1v3    C928.1,625,928.8,624.8,929.6,624.8L929.6,624.8z M940.3,626.2c0.7,0.2,1.2,0.5,1.5,1s0.5,1.1,0.5,1.8c0,1-0.4,1.8-1.1,2.3    s-1.7,0.9-2.9,0.9c-0.8,0-1.5-0.1-2.2-0.4s-1.3-0.6-1.7-1l0.7-1.5c1,0.8,2,1.2,3.2,1.2c0.7,0,1.2-0.1,1.6-0.4s0.5-0.7,0.5-1.3    c0-0.6-0.2-1-0.5-1.3s-0.9-0.4-1.7-0.4h-1.5v-1.6h1.2c1.5,0,2.2-0.5,2.2-1.6c0-0.5-0.2-0.9-0.5-1.2s-0.8-0.4-1.3-0.4    c-0.5,0-1,0.1-1.5,0.3s-1,0.5-1.5,0.9l-0.7-1.5c0.4-0.4,1-0.7,1.7-1s1.4-0.4,2.1-0.4c1.1,0,2,0.3,2.7,0.8s1,1.3,1,2.2    c0,0.6-0.2,1.2-0.5,1.6S940.9,626,940.3,626.2L940.3,626.2z M948.8,624.8c0.7,0,1.3,0.2,1.9,0.5s1,0.7,1.2,1.3s0.4,1.2,0.4,1.9    c0,0.7-0.2,1.4-0.5,2s-0.8,1-1.4,1.3s-1.4,0.5-2.2,0.5c-0.7,0-1.4-0.1-2.1-0.4s-1.3-0.6-1.7-1l0.7-1.5c1,0.8,2.1,1.2,3.1,1.2    c0.7,0,1.2-0.2,1.6-0.5s0.6-0.9,0.6-1.5c0-0.6-0.2-1.1-0.6-1.5s-0.9-0.6-1.5-0.6c-0.4,0-0.9,0.1-1.2,0.2s-0.7,0.4-1,0.7h-1.2v-6.6    h7.1v1.6h-5.1v3C947.3,625,948,624.8,948.8,624.8L948.8,624.8z"/>
		<path class="st1" d="M206.6,327v-7.8h2v7.8H206.6z M206.5,315.5h2.2v2h-2.2V315.5z M215.2,319c0.9,0,1.6,0.3,2.1,0.8    s0.7,1.3,0.7,2.4v4.8h-2v-4.7c0-0.6-0.1-1.1-0.3-1.3s-0.6-0.4-1.1-0.4c-0.6,0-1,0.2-1.4,0.5s-0.5,0.8-0.5,1.5v4.4h-2v-7.8h2v1.2    c0.3-0.4,0.6-0.8,1.1-1S214.6,319,215.2,319z M224,325.6c0.2,0,0.5,0,0.7,0l-0.1,1.5c-0.3,0-0.6,0-0.9,0c-1.1,0-1.9-0.3-2.4-0.8    s-0.8-1.3-0.8-2.3v-3.4H219v-1.5h1.5v-2.3h2v2.3h2.1v1.5h-2.1v3.4C222.5,325.1,223,325.6,224,325.6L224,325.6z M231.8,321.2    c0.7,0.2,1.2,0.5,1.5,1s0.5,1.1,0.5,1.8c0,1-0.4,1.8-1.1,2.3s-1.8,0.8-3.1,0.8s-2.4-0.3-3.1-0.8s-1.1-1.3-1.1-2.3    c0-0.7,0.2-1.3,0.5-1.8s0.9-0.8,1.5-1c-0.6-0.2-1-0.5-1.3-1s-0.5-1-0.5-1.6c0-0.9,0.4-1.7,1.1-2.2s1.7-0.8,2.9-0.8    s2.2,0.3,2.9,0.8s1.1,1.3,1.1,2.2c0,0.6-0.2,1.2-0.5,1.6S232.4,321,231.8,321.2z M229.7,317.2c-1.3,0-2,0.5-2,1.6    c0,0.5,0.2,1,0.5,1.2s0.8,0.4,1.5,0.4s1.2-0.1,1.5-0.4s0.5-0.7,0.5-1.2C231.7,317.7,231,317.2,229.7,317.2z M229.7,325.5    c1.5,0,2.3-0.6,2.3-1.7s-0.8-1.7-2.3-1.7s-2.3,0.6-2.3,1.7S228.1,325.5,229.7,325.5z"/>
		<path class="st1" d="M417.2,321.2c0.7,0.2,1.2,0.5,1.5,1s0.5,1.1,0.5,1.8c0,1-0.4,1.8-1.1,2.3s-1.8,0.8-3.1,0.8s-2.4-0.3-3.1-0.8    s-1.1-1.3-1.1-2.3c0-0.7,0.2-1.3,0.5-1.8s0.9-0.8,1.5-1c-0.6-0.2-1-0.5-1.3-1s-0.5-1-0.5-1.6c0-0.9,0.4-1.7,1.1-2.2    s1.7-0.8,2.9-0.8s2.2,0.3,2.9,0.8s1.1,1.3,1.1,2.2c0,0.6-0.2,1.2-0.5,1.6S417.7,321,417.2,321.2z M415,317.2c-1.3,0-2,0.5-2,1.6    c0,0.5,0.2,1,0.5,1.2s0.8,0.4,1.5,0.4s1.2-0.1,1.5-0.4s0.5-0.7,0.5-1.2C417,317.7,416.3,317.2,415,317.2z M415,325.5    c1.5,0,2.3-0.6,2.3-1.7s-0.8-1.7-2.3-1.7s-2.3,0.6-2.3,1.7S413.5,325.5,415,325.5z"/>
		<path class="st1" d="M662.2,323.5v-1.6h4.8v1.6H662.2z M674.4,325.3h2.4v1.7h-7v-1.7h2.4v-7.3l-1.9,1.2l-0.8-1.5l3.3-2h1.5V325.3z     M686.4,325.3v1.7h-7.6v-1.5l3.8-4.1c0.4-0.5,0.8-0.9,1-1.4s0.3-0.8,0.3-1.2c0-0.5-0.1-0.9-0.4-1.2s-0.7-0.4-1.3-0.4    c-1,0-2,0.4-3.1,1.2l-0.7-1.5c0.4-0.4,1-0.7,1.7-1s1.4-0.4,2.1-0.4c1.1,0,2,0.3,2.7,0.8s1,1.3,1,2.2c0,0.7-0.1,1.3-0.4,1.8    s-0.7,1.2-1.4,1.9l-2.8,2.9L686.4,325.3z M694.2,321.2c0.7,0.2,1.2,0.5,1.5,1s0.5,1.1,0.5,1.8c0,1-0.4,1.8-1.1,2.3    s-1.8,0.8-3.1,0.8s-2.4-0.3-3.1-0.8s-1.1-1.3-1.1-2.3c0-0.7,0.2-1.3,0.5-1.8s0.9-0.8,1.5-1c-0.6-0.2-1-0.5-1.3-1s-0.5-1-0.5-1.6    c0-0.9,0.4-1.7,1.1-2.2s1.7-0.8,2.9-0.8s2.2,0.3,2.9,0.8s1.1,1.3,1.1,2.2c0,0.6-0.2,1.2-0.5,1.6S694.8,321,694.2,321.2    L694.2,321.2z M692.1,317.2c-1.3,0-2,0.5-2,1.6c0,0.5,0.2,1,0.5,1.2s0.8,0.4,1.5,0.4s1.2-0.1,1.5-0.4s0.5-0.7,0.5-1.2    C694.1,317.7,693.4,317.2,692.1,317.2z M692.1,325.5c1.5,0,2.3-0.6,2.3-1.7s-0.8-1.7-2.3-1.7s-2.3,0.6-2.3,1.7    S690.6,325.5,692.1,325.5z"/>
		<path class="st1" d="M918.9,325.3h2.4v1.7h-7v-1.7h2.4v-7.3l-1.9,1.2l-0.8-1.5l3.3-2h1.5V325.3z M930.9,325.3v1.7h-7.6v-1.5    l3.8-4.1c0.4-0.5,0.8-0.9,1-1.4s0.3-0.8,0.3-1.2c0-0.5-0.1-0.9-0.4-1.2s-0.7-0.4-1.3-0.4c-1,0-2,0.4-3.1,1.2l-0.7-1.5    c0.4-0.4,1-0.7,1.7-1s1.4-0.4,2.1-0.4c1.1,0,2,0.3,2.7,0.8s1,1.3,1,2.2c0,0.7-0.1,1.3-0.4,1.8s-0.7,1.2-1.4,1.9l-2.8,2.9    L930.9,325.3z M932.7,315.7h7.9v1.5l-5.1,9.7h-2.2l5.1-9.6h-5.6V315.7z"/>
		<path class="st1" d="M202.3,508v-7.8h2v7.8H202.3z M202.2,496.5h2.2v2h-2.2V496.5z M210.9,500c0.9,0,1.6,0.3,2.1,0.8    s0.7,1.3,0.7,2.4v4.8h-2v-4.7c0-0.6-0.1-1.1-0.3-1.3s-0.6-0.4-1.1-0.4c-0.6,0-1,0.2-1.4,0.5s-0.5,0.8-0.5,1.5v4.4h-2v-7.8h2v1.2    c0.3-0.4,0.6-0.8,1.1-1S210.3,500,210.9,500z M219.7,506.6c0.2,0,0.5,0,0.7,0l-0.1,1.5c-0.3,0-0.6,0-0.9,0c-1.1,0-1.9-0.3-2.4-0.8    s-0.8-1.3-0.8-2.3v-3.4h-1.5v-1.5h1.5v-2.3h2v2.3h2.1v1.5h-2.1v3.4C218.2,506.1,218.7,506.6,219.7,506.6L219.7,506.6z     M226.1,500.8c0.7,0,1.3,0.2,1.8,0.5s0.9,0.7,1.2,1.3s0.4,1.2,0.4,1.9c0,0.7-0.2,1.4-0.5,1.9s-0.8,1-1.3,1.3s-1.2,0.5-2,0.5    c-1.4,0-2.5-0.5-3.3-1.4s-1.2-2.3-1.2-4.1c0-1.2,0.2-2.3,0.6-3.2s0.9-1.6,1.6-2.1s1.5-0.7,2.5-0.7c0.7,0,1.3,0.1,2,0.3    s1.2,0.6,1.7,1l-0.7,1.5c-1-0.8-1.9-1.2-2.9-1.2c-0.8,0-1.5,0.3-1.9,1s-0.7,1.7-0.7,3c0.2-0.5,0.6-0.9,1.1-1.1    S225.5,500.8,226.1,500.8L226.1,500.8z M225.6,506.5c0.6,0,1.1-0.2,1.4-0.6s0.5-0.9,0.5-1.5c0-0.6-0.2-1.1-0.5-1.5    s-0.8-0.6-1.4-0.6s-1.1,0.2-1.4,0.6s-0.6,0.9-0.6,1.5c0,0.6,0.2,1.1,0.6,1.5S225,506.5,225.6,506.5L225.6,506.5z M239.3,504.2v1.6    h-1.6v2.2h-2v-2.2h-4.9v-1.5l5.2-7.6h1.7v7.5H239.3z M232.8,504.2h3v-4.3L232.8,504.2z"/>
		<path class="st1" d="M410.9,500.8c0.7,0,1.3,0.2,1.8,0.5s0.9,0.7,1.2,1.3s0.4,1.2,0.4,1.9c0,0.7-0.2,1.4-0.5,1.9s-0.8,1-1.3,1.3    s-1.2,0.5-2,0.5c-1.4,0-2.5-0.5-3.3-1.4s-1.2-2.3-1.2-4.1c0-1.2,0.2-2.3,0.6-3.2s0.9-1.6,1.6-2.1s1.5-0.7,2.5-0.7    c0.7,0,1.3,0.1,2,0.3s1.2,0.6,1.7,1l-0.7,1.5c-1-0.8-1.9-1.2-2.9-1.2c-0.8,0-1.5,0.3-1.9,1s-0.7,1.7-0.7,3    c0.2-0.5,0.6-0.9,1.1-1.1S410.3,500.8,410.9,500.8L410.9,500.8z M410.5,506.5c0.6,0,1.1-0.2,1.4-0.6s0.5-0.9,0.5-1.5    c0-0.6-0.2-1.1-0.5-1.5s-0.8-0.6-1.4-0.6s-1.1,0.2-1.4,0.6s-0.6,0.9-0.6,1.5c0,0.6,0.2,1.1,0.6,1.5S409.9,506.5,410.5,506.5    L410.5,506.5z M424.2,504.2v1.6h-1.6v2.2h-2v-2.2h-4.9v-1.5l5.2-7.6h1.7v7.5L424.2,504.2z M417.6,504.2h3v-4.3L417.6,504.2z"/>
		<path class="st1" d="M573.5,504.5v-1.6h4.8v1.6H573.5z M583.8,496.6c1.4,0,2.5,0.5,3.3,1.4s1.2,2.3,1.2,4.1c0,1.2-0.2,2.3-0.6,3.2    s-0.9,1.6-1.6,2.1s-1.5,0.7-2.5,0.7c-0.7,0-1.3-0.1-2-0.3s-1.2-0.6-1.7-1l0.7-1.5c1,0.8,1.9,1.2,2.9,1.2c0.8,0,1.5-0.4,1.9-1.1    s0.7-1.7,0.7-3.1c-0.2,0.5-0.6,0.9-1.1,1.1s-1,0.4-1.6,0.4c-0.7,0-1.3-0.2-1.8-0.5s-0.9-0.7-1.2-1.3s-0.4-1.2-0.4-1.9    c0-0.7,0.2-1.4,0.5-1.9s0.8-1,1.3-1.3S583.1,496.6,583.8,496.6L583.8,496.6z M583.9,502.3c0.6,0,1.1-0.2,1.4-0.6s0.6-0.9,0.6-1.5    c0-0.6-0.2-1.1-0.6-1.5s-0.9-0.6-1.4-0.6c-0.6,0-1.1,0.2-1.4,0.6s-0.5,0.9-0.5,1.5s0.2,1.1,0.5,1.5S583.3,502.3,583.9,502.3z     M592,505.8v1.5c0,0.6-0.1,1.1-0.3,1.5s-0.5,0.9-1,1.4l-0.8-0.6c0.5-0.5,0.8-1,0.9-1.5h-1v-2.2L592,505.8z M601.7,506.3v1.7h-7.6    v-1.5l3.8-4.1c0.4-0.5,0.8-0.9,1-1.4s0.3-0.8,0.3-1.2c0-0.5-0.1-0.9-0.4-1.2s-0.7-0.4-1.3-0.4c-1,0-2,0.4-3.1,1.2l-0.7-1.5    c0.4-0.4,1-0.7,1.7-1s1.4-0.4,2.1-0.4c1.1,0,2,0.3,2.7,0.8s1,1.3,1,2.2c0,0.7-0.1,1.3-0.4,1.8s-0.7,1.2-1.4,1.9l-2.8,2.9    L601.7,506.3z M611.3,506.3v1.7h-7.6v-1.5l3.8-4.1c0.4-0.5,0.8-0.9,1-1.4s0.3-0.8,0.3-1.2c0-0.5-0.1-0.9-0.4-1.2s-0.7-0.4-1.3-0.4    c-1,0-2,0.4-3.1,1.2l-0.7-1.5c0.4-0.4,1-0.7,1.7-1s1.4-0.4,2.1-0.4c1.1,0,2,0.3,2.7,0.8s1,1.3,1,2.2c0,0.7-0.1,1.3-0.4,1.8    s-0.7,1.2-1.4,1.9l-2.8,2.9L611.3,506.3z M618.7,502.2c0.7,0.2,1.2,0.5,1.5,1s0.5,1.1,0.5,1.8c0,1-0.4,1.8-1.1,2.3    s-1.7,0.9-2.9,0.9c-0.8,0-1.5-0.1-2.2-0.4s-1.3-0.6-1.7-1l0.7-1.5c1,0.8,2,1.2,3.2,1.2c0.7,0,1.2-0.1,1.6-0.4s0.5-0.7,0.5-1.3    c0-0.6-0.2-1-0.5-1.3s-0.9-0.4-1.7-0.4h-1.5v-1.6h1.2c1.5,0,2.2-0.5,2.2-1.6c0-0.5-0.2-0.9-0.5-1.2s-0.8-0.4-1.3-0.4    c-0.5,0-1,0.1-1.5,0.3s-1,0.5-1.5,0.9l-0.7-1.5c0.4-0.4,1-0.7,1.7-1s1.4-0.4,2.1-0.4c1.1,0,2,0.3,2.7,0.8s1,1.3,1,2.2    c0,0.6-0.2,1.2-0.5,1.6S619.2,502,618.7,502.2L618.7,502.2z M624.8,505.8v1.5c0,0.6-0.1,1.1-0.3,1.5s-0.5,0.9-1,1.4l-0.8-0.6    c0.5-0.5,0.8-1,0.9-1.5h-1v-2.2L624.8,505.8z M632.3,502.2c0.7,0.2,1.2,0.5,1.5,1s0.5,1.1,0.5,1.8c0,1-0.4,1.8-1.1,2.3    s-1.7,0.9-2.9,0.9c-0.8,0-1.5-0.1-2.2-0.4s-1.3-0.6-1.7-1l0.7-1.5c1,0.8,2,1.2,3.2,1.2c0.7,0,1.2-0.1,1.6-0.4s0.5-0.7,0.5-1.3    c0-0.6-0.2-1-0.5-1.3s-0.9-0.4-1.7-0.4h-1.5v-1.6h1.2c1.5,0,2.2-0.5,2.2-1.6c0-0.5-0.2-0.9-0.5-1.2s-0.8-0.4-1.3-0.4    c-0.5,0-1,0.1-1.5,0.3s-1,0.5-1.5,0.9l-0.7-1.5c0.4-0.4,1-0.7,1.7-1s1.4-0.4,2.1-0.4c1.1,0,2,0.3,2.7,0.8s1,1.3,1,2.2    c0,0.6-0.2,1.2-0.5,1.6S632.8,502,632.3,502.2L632.3,502.2z M636.2,496.7h7.9v1.5l-5.1,9.7h-2.2l5.1-9.6h-5.6V496.7z M653.7,506.3    v1.7h-7.6v-1.5l3.8-4.1c0.4-0.5,0.8-0.9,1-1.4s0.3-0.8,0.3-1.2c0-0.5-0.1-0.9-0.4-1.2s-0.7-0.4-1.3-0.4c-1,0-2,0.4-3.1,1.2    l-0.7-1.5c0.4-0.4,1-0.7,1.7-1s1.4-0.4,2.1-0.4c1.1,0,2,0.3,2.7,0.8s1,1.3,1,2.2c0,0.7-0.1,1.3-0.4,1.8s-0.7,1.2-1.4,1.9l-2.8,2.9    L653.7,506.3z M657.6,505.8v1.5c0,0.6-0.1,1.1-0.3,1.5s-0.5,0.9-1,1.4l-0.8-0.6c0.5-0.5,0.8-1,0.9-1.5h-1v-2.2L657.6,505.8z     M663.3,508.1c-1.3,0-2.4-0.5-3.1-1.5s-1.1-2.4-1.1-4.3c0-1.9,0.4-3.3,1.1-4.3s1.7-1.5,3.1-1.5s2.4,0.5,3.1,1.5s1.1,2.4,1.1,4.3    c0,1.9-0.4,3.3-1.1,4.3S664.6,508.1,663.3,508.1L663.3,508.1z M663.3,506.5c0.7,0,1.3-0.3,1.6-1s0.5-1.7,0.5-3.2    c0-1.4-0.2-2.5-0.5-3.1s-0.9-1-1.6-1s-1.3,0.3-1.6,1s-0.5,1.7-0.5,3.1c0,1.5,0.2,2.5,0.5,3.2S662.6,506.5,663.3,506.5z     M674.6,502.2c0.7,0.2,1.2,0.5,1.5,1s0.5,1.1,0.5,1.8c0,1-0.4,1.8-1.1,2.3s-1.7,0.9-2.9,0.9c-0.8,0-1.5-0.1-2.2-0.4    s-1.3-0.6-1.7-1l0.7-1.5c1,0.8,2,1.2,3.2,1.2c0.7,0,1.2-0.1,1.6-0.4s0.5-0.7,0.5-1.3c0-0.6-0.2-1-0.5-1.3s-0.9-0.4-1.7-0.4h-1.5    v-1.6h1.2c1.5,0,2.2-0.5,2.2-1.6c0-0.5-0.2-0.9-0.5-1.2s-0.8-0.4-1.3-0.4c-0.5,0-1,0.1-1.5,0.3s-1,0.5-1.5,0.9l-0.7-1.5    c0.4-0.4,1-0.7,1.7-1s1.4-0.4,2.1-0.4c1.1,0,2,0.3,2.7,0.8s1,1.3,1,2.2c0,0.6-0.2,1.2-0.5,1.6S675.2,502,674.6,502.2L674.6,502.2z     M683.2,500.8c0.7,0,1.3,0.2,1.8,0.5s0.9,0.7,1.2,1.3s0.4,1.2,0.4,1.9c0,0.7-0.2,1.4-0.5,1.9s-0.8,1-1.3,1.3s-1.2,0.5-2,0.5    c-1.4,0-2.5-0.5-3.3-1.4s-1.2-2.3-1.2-4.1c0-1.2,0.2-2.3,0.6-3.2s0.9-1.6,1.6-2.1s1.5-0.7,2.5-0.7c0.7,0,1.3,0.1,2,0.3    s1.2,0.6,1.7,1l-0.7,1.5c-1-0.8-1.9-1.2-2.9-1.2c-0.8,0-1.5,0.3-1.9,1s-0.7,1.7-0.7,3c0.2-0.5,0.6-0.9,1.1-1.1    S682.6,500.8,683.2,500.8L683.2,500.8z M682.8,506.5c0.6,0,1.1-0.2,1.4-0.6s0.5-0.9,0.5-1.5c0-0.6-0.2-1.1-0.5-1.5    s-0.8-0.6-1.4-0.6s-1.1,0.2-1.4,0.6s-0.6,0.9-0.6,1.5c0,0.6,0.2,1.1,0.6,1.5S682.2,506.5,682.8,506.5z M690.4,505.8v1.5    c0,0.6-0.1,1.1-0.3,1.5s-0.5,0.9-1,1.4l-0.8-0.6c0.5-0.5,0.8-1,0.9-1.5h-1v-2.2L690.4,505.8z M698.2,502.2c0.7,0.2,1.2,0.5,1.5,1    s0.5,1.1,0.5,1.8c0,1-0.4,1.8-1.1,2.3s-1.8,0.8-3.1,0.8s-2.4-0.3-3.1-0.8s-1.1-1.3-1.1-2.3c0-0.7,0.2-1.3,0.5-1.8s0.9-0.8,1.5-1    c-0.6-0.2-1-0.5-1.3-1s-0.5-1-0.5-1.6c0-0.9,0.4-1.7,1.1-2.2s1.7-0.8,2.9-0.8s2.2,0.3,2.9,0.8s1.1,1.3,1.1,2.2    c0,0.6-0.2,1.2-0.5,1.6S698.8,502,698.2,502.2L698.2,502.2z M696.1,498.2c-1.3,0-2,0.5-2,1.6c0,0.5,0.2,1,0.5,1.2s0.8,0.4,1.5,0.4    s1.2-0.1,1.5-0.4s0.5-0.7,0.5-1.2C698.1,498.7,697.4,498.2,696.1,498.2z M696.1,506.5c1.5,0,2.3-0.6,2.3-1.7s-0.8-1.7-2.3-1.7    s-2.3,0.6-2.3,1.7S694.5,506.5,696.1,506.5z M706.3,500.8c0.7,0,1.3,0.2,1.9,0.5s1,0.7,1.2,1.3s0.4,1.2,0.4,1.9    c0,0.7-0.2,1.4-0.5,2s-0.8,1-1.4,1.3s-1.4,0.5-2.2,0.5c-0.7,0-1.4-0.1-2.1-0.4s-1.3-0.6-1.7-1l0.7-1.5c1,0.8,2.1,1.2,3.1,1.2    c0.7,0,1.2-0.2,1.6-0.5s0.6-0.9,0.6-1.5c0-0.6-0.2-1.1-0.6-1.5s-0.9-0.6-1.5-0.6c-0.4,0-0.9,0.1-1.2,0.2s-0.7,0.4-1,0.7h-1.2v-6.6    h7.1v1.6h-5.1v3C704.8,501,705.5,500.8,706.3,500.8z M719.6,504.2v1.6H718v2.2h-2v-2.2h-4.9v-1.5l5.2-7.6h1.7v7.5L719.6,504.2z     M713.1,504.2h3v-4.3L713.1,504.2z M723.2,505.8v1.5c0,0.6-0.1,1.1-0.3,1.5s-0.5,0.9-1,1.4l-0.8-0.6c0.5-0.5,0.8-1,0.9-1.5h-1    v-2.2L723.2,505.8z M724.9,496.7h7.9v1.5l-5.1,9.7h-2.2l5.1-9.6h-5.6V496.7z M734.5,496.7h7.9v1.5l-5.1,9.7h-2.2l5.1-9.6h-5.6    V496.7z M748.6,500.8c0.7,0,1.3,0.2,1.9,0.5s1,0.7,1.2,1.3s0.4,1.2,0.4,1.9c0,0.7-0.2,1.4-0.5,2s-0.8,1-1.4,1.3s-1.4,0.5-2.2,0.5    c-0.7,0-1.4-0.1-2.1-0.4s-1.3-0.6-1.7-1l0.7-1.5c1,0.8,2.1,1.2,3.1,1.2c0.7,0,1.2-0.2,1.6-0.5s0.6-0.9,0.6-1.5    c0-0.6-0.2-1.1-0.6-1.5s-0.9-0.6-1.5-0.6c-0.4,0-0.9,0.1-1.2,0.2s-0.7,0.4-1,0.7h-1.2v-6.6h7.1v1.6h-5.1v3    C747.2,501,747.8,500.8,748.6,500.8z M755.9,505.8v1.5c0,0.6-0.1,1.1-0.3,1.5s-0.5,0.9-1,1.4l-0.8-0.6c0.5-0.5,0.8-1,0.9-1.5h-1    v-2.2L755.9,505.8z M763.8,502.2c0.7,0.2,1.2,0.5,1.5,1s0.5,1.1,0.5,1.8c0,1-0.4,1.8-1.1,2.3s-1.8,0.8-3.1,0.8s-2.4-0.3-3.1-0.8    s-1.1-1.3-1.1-2.3c0-0.7,0.2-1.3,0.5-1.8s0.9-0.8,1.5-1c-0.6-0.2-1-0.5-1.3-1s-0.5-1-0.5-1.6c0-0.9,0.4-1.7,1.1-2.2    s1.7-0.8,2.9-0.8s2.2,0.3,2.9,0.8s1.1,1.3,1.1,2.2c0,0.6-0.2,1.2-0.5,1.6S764.3,502,763.8,502.2L763.8,502.2z M761.6,498.2    c-1.3,0-2,0.5-2,1.6c0,0.5,0.2,1,0.5,1.2s0.8,0.4,1.5,0.4s1.2-0.1,1.5-0.4s0.5-0.7,0.5-1.2C763.6,498.7,762.9,498.2,761.6,498.2z     M761.6,506.5c1.5,0,2.3-0.6,2.3-1.7s-0.8-1.7-2.3-1.7s-2.3,0.6-2.3,1.7S760.1,506.5,761.6,506.5z M771.2,508.1    c-1.3,0-2.4-0.5-3.1-1.5s-1.1-2.4-1.1-4.3c0-1.9,0.4-3.3,1.1-4.3s1.7-1.5,3.1-1.5s2.4,0.5,3.1,1.5s1.1,2.4,1.1,4.3    c0,1.9-0.4,3.3-1.1,4.3S772.5,508.1,771.2,508.1L771.2,508.1z M771.2,506.5c0.7,0,1.3-0.3,1.6-1s0.5-1.7,0.5-3.2    c0-1.4-0.2-2.5-0.5-3.1s-0.9-1-1.6-1s-1.3,0.3-1.6,1s-0.5,1.7-0.5,3.1c0,1.5,0.2,2.5,0.5,3.2S770.5,506.5,771.2,506.5z M783,502.2    c0.7,0.2,1.2,0.5,1.5,1s0.5,1.1,0.5,1.8c0,1-0.4,1.8-1.1,2.3s-1.8,0.8-3.1,0.8s-2.4-0.3-3.1-0.8s-1.1-1.3-1.1-2.3    c0-0.7,0.2-1.3,0.5-1.8s0.9-0.8,1.5-1c-0.6-0.2-1-0.5-1.3-1s-0.5-1-0.5-1.6c0-0.9,0.4-1.7,1.1-2.2s1.7-0.8,2.9-0.8    s2.2,0.3,2.9,0.8s1.1,1.3,1.1,2.2c0,0.6-0.2,1.2-0.5,1.6S783.5,502,783,502.2L783,502.2z M780.8,498.2c-1.3,0-2,0.5-2,1.6    c0,0.5,0.2,1,0.5,1.2s0.8,0.4,1.5,0.4s1.2-0.1,1.5-0.4s0.5-0.7,0.5-1.2C782.8,498.7,782.1,498.2,780.8,498.2z M780.8,506.5    c1.5,0,2.3-0.6,2.3-1.7s-0.8-1.7-2.3-1.7s-2.3,0.6-2.3,1.7S779.3,506.5,780.8,506.5z"/>
		<path class="st1" d="M828.3,496.6c1.4,0,2.5,0.5,3.3,1.4s1.2,2.3,1.2,4.1c0,1.2-0.2,2.3-0.6,3.2s-0.9,1.6-1.6,2.1    s-1.5,0.7-2.5,0.7c-0.7,0-1.3-0.1-2-0.3s-1.2-0.6-1.7-1l0.7-1.5c1,0.8,1.9,1.2,2.9,1.2c0.8,0,1.5-0.4,1.9-1.1s0.7-1.7,0.7-3.1    c-0.2,0.5-0.6,0.9-1.1,1.1s-1,0.4-1.6,0.4c-0.7,0-1.3-0.2-1.8-0.5s-0.9-0.7-1.2-1.3s-0.4-1.2-0.4-1.9c0-0.7,0.2-1.4,0.5-1.9    s0.8-1,1.3-1.3S827.6,496.6,828.3,496.6L828.3,496.6z M828.4,502.3c0.6,0,1.1-0.2,1.4-0.6s0.6-0.9,0.6-1.5c0-0.6-0.2-1.1-0.6-1.5    s-0.9-0.6-1.4-0.6c-0.6,0-1.1,0.2-1.4,0.6s-0.5,0.9-0.5,1.5s0.2,1.1,0.5,1.5S827.8,502.3,828.4,502.3z M836.6,505.8v1.5    c0,0.6-0.1,1.1-0.3,1.5s-0.5,0.9-1,1.4l-0.8-0.6c0.5-0.5,0.8-1,0.9-1.5h-1v-2.2L836.6,505.8z M846.2,506.3v1.7h-7.6v-1.5l3.8-4.1    c0.4-0.5,0.8-0.9,1-1.4s0.3-0.8,0.3-1.2c0-0.5-0.1-0.9-0.4-1.2s-0.7-0.4-1.3-0.4c-1,0-2,0.4-3.1,1.2l-0.7-1.5c0.4-0.4,1-0.7,1.7-1    s1.4-0.4,2.1-0.4c1.1,0,2,0.3,2.7,0.8s1,1.3,1,2.2c0,0.7-0.1,1.3-0.4,1.8s-0.7,1.2-1.4,1.9l-2.8,2.9L846.2,506.3z M855.8,506.3    v1.7h-7.6v-1.5l3.8-4.1c0.4-0.5,0.8-0.9,1-1.4s0.3-0.8,0.3-1.2c0-0.5-0.1-0.9-0.4-1.2s-0.7-0.4-1.3-0.4c-1,0-2,0.4-3.1,1.2    l-0.7-1.5c0.4-0.4,1-0.7,1.7-1s1.4-0.4,2.1-0.4c1.1,0,2,0.3,2.7,0.8s1,1.3,1,2.2c0,0.7-0.1,1.3-0.4,1.8s-0.7,1.2-1.4,1.9l-2.8,2.9    L855.8,506.3z M863.2,502.2c0.7,0.2,1.2,0.5,1.5,1s0.5,1.1,0.5,1.8c0,1-0.4,1.8-1.1,2.3s-1.7,0.9-2.9,0.9c-0.8,0-1.5-0.1-2.2-0.4    s-1.3-0.6-1.7-1l0.7-1.5c1,0.8,2,1.2,3.2,1.2c0.7,0,1.2-0.1,1.6-0.4s0.5-0.7,0.5-1.3c0-0.6-0.2-1-0.5-1.3s-0.9-0.4-1.7-0.4h-1.5    v-1.6h1.2c1.5,0,2.2-0.5,2.2-1.6c0-0.5-0.2-0.9-0.5-1.2s-0.8-0.4-1.3-0.4c-0.5,0-1,0.1-1.5,0.3s-1,0.5-1.5,0.9l-0.7-1.5    c0.4-0.4,1-0.7,1.7-1s1.4-0.4,2.1-0.4c1.1,0,2,0.3,2.7,0.8s1,1.3,1,2.2c0,0.6-0.2,1.2-0.5,1.6S863.8,502,863.2,502.2L863.2,502.2z     M869.4,505.8v1.5c0,0.6-0.1,1.1-0.3,1.5s-0.5,0.9-1,1.4l-0.8-0.6c0.5-0.5,0.8-1,0.9-1.5h-1v-2.2L869.4,505.8z M876.8,502.2    c0.7,0.2,1.2,0.5,1.5,1s0.5,1.1,0.5,1.8c0,1-0.4,1.8-1.1,2.3s-1.7,0.9-2.9,0.9c-0.8,0-1.5-0.1-2.2-0.4s-1.3-0.6-1.7-1l0.7-1.5    c1,0.8,2,1.2,3.2,1.2c0.7,0,1.2-0.1,1.6-0.4s0.5-0.7,0.5-1.3c0-0.6-0.2-1-0.5-1.3s-0.9-0.4-1.7-0.4h-1.5v-1.6h1.2    c1.5,0,2.2-0.5,2.2-1.6c0-0.5-0.2-0.9-0.5-1.2s-0.8-0.4-1.3-0.4c-0.5,0-1,0.1-1.5,0.3s-1,0.5-1.5,0.9l-0.7-1.5    c0.4-0.4,1-0.7,1.7-1s1.4-0.4,2.1-0.4c1.1,0,2,0.3,2.7,0.8s1,1.3,1,2.2c0,0.6-0.2,1.2-0.5,1.6S877.3,502,876.8,502.2L876.8,502.2z     M880.7,496.7h7.9v1.5l-5.1,9.7h-2.2l5.1-9.6h-5.6V496.7z M898.2,506.3v1.7h-7.6v-1.5l3.8-4.1c0.4-0.5,0.8-0.9,1-1.4    s0.3-0.8,0.3-1.2c0-0.5-0.1-0.9-0.4-1.2s-0.7-0.4-1.3-0.4c-1,0-2,0.4-3.1,1.2l-0.7-1.5c0.4-0.4,1-0.7,1.7-1s1.4-0.4,2.1-0.4    c1.1,0,2,0.3,2.7,0.8s1,1.3,1,2.2c0,0.7-0.1,1.3-0.4,1.8s-0.7,1.2-1.4,1.9l-2.8,2.9L898.2,506.3z M902.2,505.8v1.5    c0,0.6-0.1,1.1-0.3,1.5s-0.5,0.9-1,1.4l-0.8-0.6c0.5-0.5,0.8-1,0.9-1.5h-1v-2.2L902.2,505.8z M907.8,508.1c-1.3,0-2.4-0.5-3.1-1.5    s-1.1-2.4-1.1-4.3c0-1.9,0.4-3.3,1.1-4.3s1.7-1.5,3.1-1.5s2.4,0.5,3.1,1.5s1.1,2.4,1.1,4.3c0,1.9-0.4,3.3-1.1,4.3    S909.2,508.1,907.8,508.1L907.8,508.1z M907.8,506.5c0.7,0,1.3-0.3,1.6-1s0.5-1.7,0.5-3.2c0-1.4-0.2-2.5-0.5-3.1s-0.9-1-1.6-1    s-1.3,0.3-1.6,1s-0.5,1.7-0.5,3.1c0,1.5,0.2,2.5,0.5,3.2S907.1,506.5,907.8,506.5z M919.2,502.2c0.7,0.2,1.2,0.5,1.5,1    s0.5,1.1,0.5,1.8c0,1-0.4,1.8-1.1,2.3s-1.7,0.9-2.9,0.9c-0.8,0-1.5-0.1-2.2-0.4s-1.3-0.6-1.7-1l0.7-1.5c1,0.8,2,1.2,3.2,1.2    c0.7,0,1.2-0.1,1.6-0.4s0.5-0.7,0.5-1.3c0-0.6-0.2-1-0.5-1.3s-0.9-0.4-1.7-0.4h-1.5v-1.6h1.2c1.5,0,2.2-0.5,2.2-1.6    c0-0.5-0.2-0.9-0.5-1.2s-0.8-0.4-1.3-0.4c-0.5,0-1,0.1-1.5,0.3s-1,0.5-1.5,0.9l-0.7-1.5c0.4-0.4,1-0.7,1.7-1s1.4-0.4,2.1-0.4    c1.1,0,2,0.3,2.7,0.8s1,1.3,1,2.2c0,0.6-0.2,1.2-0.5,1.6S919.7,502,919.2,502.2L919.2,502.2z M927.7,500.8c0.7,0,1.3,0.2,1.8,0.5    s0.9,0.7,1.2,1.3s0.4,1.2,0.4,1.9c0,0.7-0.2,1.4-0.5,1.9s-0.8,1-1.3,1.3s-1.2,0.5-2,0.5c-1.4,0-2.5-0.5-3.3-1.4s-1.2-2.3-1.2-4.1    c0-1.2,0.2-2.3,0.6-3.2s0.9-1.6,1.6-2.1s1.5-0.7,2.5-0.7c0.7,0,1.3,0.1,2,0.3s1.2,0.6,1.7,1l-0.7,1.5c-1-0.8-1.9-1.2-2.9-1.2    c-0.8,0-1.5,0.3-1.9,1s-0.7,1.7-0.7,3c0.2-0.5,0.6-0.9,1.1-1.1S927.1,500.8,927.7,500.8L927.7,500.8z M927.3,506.5    c0.6,0,1.1-0.2,1.4-0.6s0.5-0.9,0.5-1.5c0-0.6-0.2-1.1-0.5-1.5s-0.8-0.6-1.4-0.6s-1.1,0.2-1.4,0.6s-0.6,0.9-0.6,1.5    c0,0.6,0.2,1.1,0.6,1.5S926.7,506.5,927.3,506.5z M934.9,505.8v1.5c0,0.6-0.1,1.1-0.3,1.5s-0.5,0.9-1,1.4l-0.8-0.6    c0.5-0.5,0.8-1,0.9-1.5h-1v-2.2L934.9,505.8z M942.8,502.2c0.7,0.2,1.2,0.5,1.5,1s0.5,1.1,0.5,1.8c0,1-0.4,1.8-1.1,2.3    s-1.8,0.8-3.1,0.8s-2.4-0.3-3.1-0.8s-1.1-1.3-1.1-2.3c0-0.7,0.2-1.3,0.5-1.8s0.9-0.8,1.5-1c-0.6-0.2-1-0.5-1.3-1s-0.5-1-0.5-1.6    c0-0.9,0.4-1.7,1.1-2.2s1.7-0.8,2.9-0.8s2.2,0.3,2.9,0.8s1.1,1.3,1.1,2.2c0,0.6-0.2,1.2-0.5,1.6S943.3,502,942.8,502.2    L942.8,502.2z M940.6,498.2c-1.3,0-2,0.5-2,1.6c0,0.5,0.2,1,0.5,1.2s0.8,0.4,1.5,0.4s1.2-0.1,1.5-0.4s0.5-0.7,0.5-1.2    C942.6,498.7,941.9,498.2,940.6,498.2z M940.6,506.5c1.5,0,2.3-0.6,2.3-1.7s-0.8-1.7-2.3-1.7s-2.3,0.6-2.3,1.7    S939.1,506.5,940.6,506.5z M950.8,500.8c0.7,0,1.3,0.2,1.9,0.5s1,0.7,1.2,1.3s0.4,1.2,0.4,1.9c0,0.7-0.2,1.4-0.5,2s-0.8,1-1.4,1.3    s-1.4,0.5-2.2,0.5c-0.7,0-1.4-0.1-2.1-0.4s-1.3-0.6-1.7-1l0.7-1.5c1,0.8,2.1,1.2,3.1,1.2c0.7,0,1.2-0.2,1.6-0.5s0.6-0.9,0.6-1.5    c0-0.6-0.2-1.1-0.6-1.5s-0.9-0.6-1.5-0.6c-0.4,0-0.9,0.1-1.2,0.2s-0.7,0.4-1,0.7h-1.2v-6.6h7.1v1.6h-5.1v3    C949.3,501,950,500.8,950.8,500.8z M964.2,504.2v1.6h-1.6v2.2h-2v-2.2h-4.9v-1.5l5.2-7.6h1.7v7.5L964.2,504.2z M957.6,504.2h3    v-4.3L957.6,504.2z M967.7,505.8v1.5c0,0.6-0.1,1.1-0.3,1.5s-0.5,0.9-1,1.4l-0.8-0.6c0.5-0.5,0.8-1,0.9-1.5h-1v-2.2L967.7,505.8z     M969.4,496.7h7.9v1.5l-5.1,9.7H970l5.1-9.6h-5.6V496.7z M979,496.7h7.9v1.5l-5.1,9.7h-2.2l5.1-9.6H979V496.7z M993.2,500.8    c0.7,0,1.3,0.2,1.9,0.5s1,0.7,1.2,1.3s0.4,1.2,0.4,1.9c0,0.7-0.2,1.4-0.5,2s-0.8,1-1.4,1.3s-1.4,0.5-2.2,0.5    c-0.7,0-1.4-0.1-2.1-0.4s-1.3-0.6-1.7-1l0.7-1.5c1,0.8,2.1,1.2,3.1,1.2c0.7,0,1.2-0.2,1.6-0.5s0.6-0.9,0.6-1.5    c0-0.6-0.2-1.1-0.6-1.5s-0.9-0.6-1.5-0.6c-0.4,0-0.9,0.1-1.2,0.2s-0.7,0.4-1,0.7h-1.2v-6.6h7.1v1.6h-5.1v3    C991.7,501,992.4,500.8,993.2,500.8z M1000.5,505.8v1.5c0,0.6-0.1,1.1-0.3,1.5s-0.5,0.9-1,1.4l-0.8-0.6c0.5-0.5,0.8-1,0.9-1.5h-1    v-2.2L1000.5,505.8z M1008.3,502.2c0.7,0.2,1.2,0.5,1.5,1s0.5,1.1,0.5,1.8c0,1-0.4,1.8-1.1,2.3s-1.8,0.8-3.1,0.8s-2.4-0.3-3.1-0.8    s-1.1-1.3-1.1-2.3c0-0.7,0.2-1.3,0.5-1.8s0.9-0.8,1.5-1c-0.6-0.2-1-0.5-1.3-1s-0.5-1-0.5-1.6c0-0.9,0.4-1.7,1.1-2.2    s1.7-0.8,2.9-0.8s2.2,0.3,2.9,0.8s1.1,1.3,1.1,2.2c0,0.6-0.2,1.2-0.5,1.6S1008.8,502,1008.3,502.2L1008.3,502.2z M1006.1,498.2    c-1.3,0-2,0.5-2,1.6c0,0.5,0.2,1,0.5,1.2s0.8,0.4,1.5,0.4s1.2-0.1,1.5-0.4s0.5-0.7,0.5-1.2    C1008.1,498.7,1007.5,498.2,1006.1,498.2z M1006.1,506.5c1.5,0,2.3-0.6,2.3-1.7s-0.8-1.7-2.3-1.7s-2.3,0.6-2.3,1.7    S1004.6,506.5,1006.1,506.5z M1015.7,508.1c-1.3,0-2.4-0.5-3.1-1.5s-1.1-2.4-1.1-4.3c0-1.9,0.4-3.3,1.1-4.3s1.7-1.5,3.1-1.5    s2.4,0.5,3.1,1.5s1.1,2.4,1.1,4.3c0,1.9-0.4,3.3-1.1,4.3S1017.1,508.1,1015.7,508.1L1015.7,508.1z M1015.7,506.5    c0.7,0,1.3-0.3,1.6-1s0.5-1.7,0.5-3.2c0-1.4-0.2-2.5-0.5-3.1s-0.9-1-1.6-1s-1.3,0.3-1.6,1s-0.5,1.7-0.5,3.1c0,1.5,0.2,2.5,0.5,3.2    S1015,506.5,1015.7,506.5z M1021.4,496.7h7.9v1.5l-5.1,9.7h-2.2l5.1-9.6h-5.6V496.7z"/>
		<path class="st1" d="M204.3,683.2v7.8h-2v-1.2c-0.2,0.4-0.6,0.8-1,1s-0.9,0.3-1.4,0.3c-1.9,0-2.9-1.1-2.9-3.2v-4.7h2v4.7    c0,0.6,0.1,1,0.3,1.2s0.6,0.4,1.1,0.4c0.6,0,1-0.2,1.3-0.6s0.5-0.9,0.5-1.5v-4.4L204.3,683.2z M206.4,691v-7.8h2v7.8H206.4z     M206.3,679.5h2.2v2h-2.2V679.5z M215,683c0.9,0,1.6,0.3,2.1,0.8s0.7,1.3,0.7,2.4v4.8h-2v-4.7c0-0.6-0.1-1.1-0.3-1.3    s-0.6-0.4-1.1-0.4c-0.6,0-1,0.2-1.4,0.5s-0.5,0.8-0.5,1.5v4.4h-2v-7.8h2v1.2c0.3-0.4,0.6-0.8,1.1-1S214.4,683,215,683L215,683z     M223.8,689.6c0.2,0,0.5,0,0.7,0l-0.1,1.5c-0.3,0-0.6,0-0.9,0c-1.1,0-1.9-0.3-2.4-0.8s-0.8-1.3-0.8-2.3v-3.4h-1.5v-1.5h1.5v-2.3h2    v2.3h2.1v1.5h-2.1v3.4C222.4,689.1,222.9,689.6,223.8,689.6L223.8,689.6z M231.2,685.2c0.7,0.2,1.2,0.5,1.5,1s0.5,1.1,0.5,1.8    c0,1-0.4,1.8-1.1,2.3s-1.7,0.9-2.9,0.9c-0.8,0-1.5-0.1-2.2-0.4s-1.3-0.6-1.7-1l0.7-1.5c1,0.8,2,1.2,3.2,1.2c0.7,0,1.2-0.1,1.6-0.4    s0.5-0.7,0.5-1.3c0-0.6-0.2-1-0.5-1.3s-0.9-0.4-1.7-0.4h-1.5v-1.6h1.2c1.5,0,2.2-0.5,2.2-1.6c0-0.5-0.2-0.9-0.5-1.2    s-0.8-0.4-1.3-0.4c-0.5,0-1,0.1-1.5,0.3s-1,0.5-1.5,0.9l-0.7-1.5c0.4-0.4,1-0.7,1.7-1s1.4-0.4,2.1-0.4c1.1,0,2,0.3,2.7,0.8    s1,1.3,1,2.2c0,0.6-0.2,1.2-0.5,1.6S231.8,685,231.2,685.2L231.2,685.2z M243,689.3v1.7h-7.6v-1.5l3.8-4.1c0.4-0.5,0.8-0.9,1-1.4    s0.3-0.8,0.3-1.2c0-0.5-0.1-0.9-0.4-1.2s-0.7-0.4-1.3-0.4c-1,0-2,0.4-3.1,1.2l-0.7-1.5c0.4-0.4,1-0.7,1.7-1s1.4-0.4,2.1-0.4    c1.1,0,2,0.3,2.7,0.8s1,1.3,1,2.2c0,0.7-0.1,1.3-0.4,1.8s-0.7,1.2-1.4,1.9l-2.8,2.9L243,689.3z"/>
		<path class="st1" d="M411.9,685.2c0.7,0.2,1.2,0.5,1.5,1s0.5,1.1,0.5,1.8c0,1-0.4,1.8-1.1,2.3s-1.7,0.9-2.9,0.9    c-0.8,0-1.5-0.1-2.2-0.4s-1.3-0.6-1.7-1l0.7-1.5c1,0.8,2,1.2,3.2,1.2c0.7,0,1.2-0.1,1.6-0.4s0.5-0.7,0.5-1.3c0-0.6-0.2-1-0.5-1.3    s-0.9-0.4-1.7-0.4h-1.5v-1.6h1.2c1.5,0,2.2-0.5,2.2-1.6c0-0.5-0.2-0.9-0.5-1.2s-0.8-0.4-1.3-0.4c-0.5,0-1,0.1-1.5,0.3    s-1,0.5-1.5,0.9l-0.7-1.5c0.4-0.4,1-0.7,1.7-1s1.4-0.4,2.1-0.4c1.1,0,2,0.3,2.7,0.8s1,1.3,1,2.2c0,0.6-0.2,1.2-0.5,1.6    S412.5,685,411.9,685.2L411.9,685.2z M423.7,689.3v1.7h-7.6v-1.5l3.8-4.1c0.4-0.5,0.8-0.9,1-1.4s0.3-0.8,0.3-1.2    c0-0.5-0.1-0.9-0.4-1.2s-0.7-0.4-1.3-0.4c-1,0-2,0.4-3.1,1.2l-0.7-1.5c0.4-0.4,1-0.7,1.7-1s1.4-0.4,2.1-0.4c1.1,0,2,0.3,2.7,0.8    s1,1.3,1,2.2c0,0.7-0.1,1.3-0.4,1.8s-0.7,1.2-1.4,1.9l-2.8,2.9L423.7,689.3z"/>
		<path class="st1" d="M679,691.1c-1.3,0-2.4-0.5-3.1-1.5s-1.1-2.4-1.1-4.3c0-1.9,0.4-3.3,1.1-4.3s1.7-1.5,3.1-1.5s2.4,0.5,3.1,1.5    s1.1,2.4,1.1,4.3c0,1.9-0.4,3.3-1.1,4.3S680.3,691.1,679,691.1z M679,689.5c0.7,0,1.3-0.3,1.6-1s0.5-1.7,0.5-3.2    c0-1.4-0.2-2.5-0.5-3.1s-0.9-1-1.6-1s-1.3,0.3-1.6,1s-0.5,1.7-0.5,3.1c0,1.5,0.2,2.5,0.5,3.2S678.3,689.5,679,689.5z"/>
		<path class="st1" d="M882.2,687.2v1.6h-1.6v2.2h-2v-2.2h-4.9v-1.5l5.2-7.6h1.7v7.5L882.2,687.2z M875.6,687.2h3v-4.3L875.6,687.2z     M885.7,688.8v1.5c0,0.6-0.1,1.1-0.3,1.5s-0.5,0.9-1,1.4l-0.8-0.6c0.5-0.5,0.8-1,0.9-1.5h-1v-2.2H885.7z M895.4,689.3v1.7h-7.6    v-1.5l3.8-4.1c0.4-0.5,0.8-0.9,1-1.4s0.3-0.8,0.3-1.2c0-0.5-0.1-0.9-0.4-1.2s-0.7-0.4-1.3-0.4c-1,0-2,0.4-3.1,1.2l-0.7-1.5    c0.4-0.4,1-0.7,1.7-1s1.4-0.4,2.1-0.4c1.1,0,2,0.3,2.7,0.8s1,1.3,1,2.2c0,0.7-0.1,1.3-0.4,1.8s-0.7,1.2-1.4,1.9l-2.8,2.9    L895.4,689.3z M900.6,679.6c1.4,0,2.5,0.5,3.3,1.4s1.2,2.3,1.2,4.1c0,1.2-0.2,2.3-0.6,3.2s-0.9,1.6-1.6,2.1s-1.5,0.7-2.5,0.7    c-0.7,0-1.3-0.1-2-0.3s-1.2-0.6-1.7-1l0.7-1.5c1,0.8,1.9,1.2,2.9,1.2c0.8,0,1.5-0.4,1.9-1.1s0.7-1.7,0.7-3.1    c-0.2,0.5-0.6,0.9-1.1,1.1s-1,0.4-1.6,0.4c-0.7,0-1.3-0.2-1.8-0.5s-0.9-0.7-1.2-1.3s-0.4-1.2-0.4-1.9c0-0.7,0.2-1.4,0.5-1.9    s0.8-1,1.3-1.3S899.9,679.6,900.6,679.6L900.6,679.6z M900.8,685.3c0.6,0,1.1-0.2,1.4-0.6s0.6-0.9,0.6-1.5c0-0.6-0.2-1.1-0.6-1.5    s-0.9-0.6-1.4-0.6c-0.6,0-1.1,0.2-1.4,0.6s-0.5,0.9-0.5,1.5s0.2,1.1,0.5,1.5S900.2,685.3,900.8,685.3z M915,687.2v1.6h-1.6v2.2h-2    v-2.2h-4.9v-1.5l5.2-7.6h1.7v7.5L915,687.2z M908.4,687.2h3v-4.3L908.4,687.2z M918.5,688.8v1.5c0,0.6-0.1,1.1-0.3,1.5    s-0.5,0.9-1,1.4l-0.8-0.6c0.5-0.5,0.8-1,0.9-1.5h-1v-2.2H918.5z M923.8,679.6c1.4,0,2.5,0.5,3.3,1.4s1.2,2.3,1.2,4.1    c0,1.2-0.2,2.3-0.6,3.2s-0.9,1.6-1.6,2.1s-1.5,0.7-2.5,0.7c-0.7,0-1.3-0.1-2-0.3s-1.2-0.6-1.7-1l0.7-1.5c1,0.8,1.9,1.2,2.9,1.2    c0.8,0,1.5-0.4,1.9-1.1s0.7-1.7,0.7-3.1c-0.2,0.5-0.6,0.9-1.1,1.1s-1,0.4-1.6,0.4c-0.7,0-1.3-0.2-1.8-0.5s-0.9-0.7-1.2-1.3    s-0.4-1.2-0.4-1.9c0-0.7,0.2-1.4,0.5-1.9s0.8-1,1.3-1.3S923.1,679.6,923.8,679.6L923.8,679.6z M923.9,685.3c0.6,0,1.1-0.2,1.4-0.6    s0.6-0.9,0.6-1.5c0-0.6-0.2-1.1-0.6-1.5s-0.9-0.6-1.4-0.6c-0.6,0-1.1,0.2-1.4,0.6s-0.5,0.9-0.5,1.5s0.2,1.1,0.5,1.5    S923.3,685.3,923.9,685.3z M934.5,683.8c0.7,0,1.3,0.2,1.8,0.5s0.9,0.7,1.2,1.3s0.4,1.2,0.4,1.9c0,0.7-0.2,1.4-0.5,1.9    s-0.8,1-1.3,1.3s-1.2,0.5-2,0.5c-1.4,0-2.5-0.5-3.3-1.4s-1.2-2.3-1.2-4.1c0-1.2,0.2-2.3,0.6-3.2s0.9-1.6,1.6-2.1s1.5-0.7,2.5-0.7    c0.7,0,1.3,0.1,2,0.3s1.2,0.6,1.7,1l-0.7,1.5c-1-0.8-1.9-1.2-2.9-1.2c-0.8,0-1.5,0.3-1.9,1s-0.7,1.7-0.7,3    c0.2-0.5,0.6-0.9,1.1-1.1S933.9,683.8,934.5,683.8L934.5,683.8z M934.1,689.5c0.6,0,1.1-0.2,1.4-0.6s0.5-0.9,0.5-1.5    c0-0.6-0.2-1.1-0.5-1.5s-0.8-0.6-1.4-0.6s-1.1,0.2-1.4,0.6s-0.6,0.9-0.6,1.5c0,0.6,0.2,1.1,0.6,1.5S933.5,689.5,934.1,689.5    L934.1,689.5z M939.5,679.7h7.9v1.5l-5.1,9.7H940l5.1-9.6h-5.6V679.7z M951.3,688.8v1.5c0,0.6-0.1,1.1-0.3,1.5s-0.5,0.9-1,1.4    l-0.8-0.6c0.5-0.5,0.8-1,0.9-1.5h-1v-2.2H951.3z M960.9,689.3v1.7h-7.6v-1.5l3.8-4.1c0.4-0.5,0.8-0.9,1-1.4s0.3-0.8,0.3-1.2    c0-0.5-0.1-0.9-0.4-1.2s-0.7-0.4-1.3-0.4c-1,0-2,0.4-3.1,1.2l-0.7-1.5c0.4-0.4,1-0.7,1.7-1s1.4-0.4,2.1-0.4c1.1,0,2,0.3,2.7,0.8    s1,1.3,1,2.2c0,0.7-0.1,1.3-0.4,1.8s-0.7,1.2-1.4,1.9l-2.8,2.9L960.9,689.3z M966.2,679.6c1.4,0,2.5,0.5,3.3,1.4s1.2,2.3,1.2,4.1    c0,1.2-0.2,2.3-0.6,3.2s-0.9,1.6-1.6,2.1s-1.5,0.7-2.5,0.7c-0.7,0-1.3-0.1-2-0.3s-1.2-0.6-1.7-1l0.7-1.5c1,0.8,1.9,1.2,2.9,1.2    c0.8,0,1.5-0.4,1.9-1.1s0.7-1.7,0.7-3.1c-0.2,0.5-0.6,0.9-1.1,1.1s-1,0.4-1.6,0.4c-0.7,0-1.3-0.2-1.8-0.5s-0.9-0.7-1.2-1.3    s-0.4-1.2-0.4-1.9c0-0.7,0.2-1.4,0.5-1.9s0.8-1,1.3-1.3S965.5,679.6,966.2,679.6L966.2,679.6z M966.3,685.3c0.6,0,1.1-0.2,1.4-0.6    s0.6-0.9,0.6-1.5c0-0.6-0.2-1.1-0.6-1.5s-0.9-0.6-1.4-0.6c-0.6,0-1.1,0.2-1.4,0.6s-0.5,0.9-0.5,1.5s0.2,1.1,0.5,1.5    S965.7,685.3,966.3,685.3z M976.8,683.8c0.7,0,1.3,0.2,1.9,0.5s1,0.7,1.2,1.3s0.4,1.2,0.4,1.9c0,0.7-0.2,1.4-0.5,2s-0.8,1-1.4,1.3    s-1.4,0.5-2.2,0.5c-0.7,0-1.4-0.1-2.1-0.4s-1.3-0.6-1.7-1l0.7-1.5c1,0.8,2.1,1.2,3.1,1.2c0.7,0,1.2-0.2,1.6-0.5s0.6-0.9,0.6-1.5    c0-0.6-0.2-1.1-0.6-1.5s-0.9-0.6-1.5-0.6c-0.4,0-0.9,0.1-1.2,0.2s-0.7,0.4-1,0.7h-1.2v-6.6h7.1v1.6h-5.1v3    C975.3,684,976,683.8,976.8,683.8L976.8,683.8z"/>
		<path class="st1" d="M202.3,388v-7.8h2v7.8H202.3z M202.2,376.5h2.2v2h-2.2V376.5z M210.9,380c0.9,0,1.6,0.3,2.1,0.8    s0.7,1.3,0.7,2.4v4.8h-2v-4.7c0-0.6-0.1-1.1-0.3-1.3s-0.6-0.4-1.1-0.4c-0.6,0-1,0.2-1.4,0.5s-0.5,0.8-0.5,1.5v4.4h-2v-7.8h2v1.2    c0.3-0.4,0.6-0.8,1.1-1S210.3,380,210.9,380z M219.7,386.6c0.2,0,0.5,0,0.7,0l-0.1,1.5c-0.3,0-0.6,0-0.9,0c-1.1,0-1.9-0.3-2.4-0.8    s-0.8-1.3-0.8-2.3v-3.4h-1.5v-1.5h1.5v-2.3h2v2.3h2.1v1.5h-2.1v3.4C218.2,386.1,218.7,386.6,219.7,386.6L219.7,386.6z     M226.9,386.3h2.4v1.7h-7v-1.7h2.4v-7.3l-1.9,1.2l-0.8-1.5l3.3-2h1.5L226.9,386.3z M235.7,380.8c0.7,0,1.3,0.2,1.8,0.5    s0.9,0.7,1.2,1.3s0.4,1.2,0.4,1.9c0,0.7-0.2,1.4-0.5,1.9s-0.8,1-1.3,1.3s-1.2,0.5-2,0.5c-1.4,0-2.5-0.5-3.3-1.4s-1.2-2.3-1.2-4.1    c0-1.2,0.2-2.3,0.6-3.2s0.9-1.6,1.6-2.1s1.5-0.7,2.5-0.7c0.7,0,1.3,0.1,2,0.3s1.2,0.6,1.7,1l-0.7,1.5c-1-0.8-1.9-1.2-2.9-1.2    c-0.8,0-1.5,0.3-1.9,1s-0.7,1.7-0.7,3c0.2-0.5,0.6-0.9,1.1-1.1S235.1,380.8,235.7,380.8L235.7,380.8z M235.2,386.5    c0.6,0,1.1-0.2,1.4-0.6s0.5-0.9,0.5-1.5c0-0.6-0.2-1.1-0.5-1.5s-0.8-0.6-1.4-0.6s-1.1,0.2-1.4,0.6s-0.6,0.9-0.6,1.5    c0,0.6,0.2,1.1,0.6,1.5S234.6,386.5,235.2,386.5L235.2,386.5z"/>
		<path class="st1" d="M411.7,386.3h2.4v1.7h-7v-1.7h2.4v-7.3l-1.9,1.2l-0.8-1.5l3.3-2h1.5L411.7,386.3z M420.5,380.8    c0.7,0,1.3,0.2,1.8,0.5s0.9,0.7,1.2,1.3s0.4,1.2,0.4,1.9c0,0.7-0.2,1.4-0.5,1.9s-0.8,1-1.3,1.3s-1.2,0.5-2,0.5    c-1.4,0-2.5-0.5-3.3-1.4s-1.2-2.3-1.2-4.1c0-1.2,0.2-2.3,0.6-3.2s0.9-1.6,1.6-2.1s1.5-0.7,2.5-0.7c0.7,0,1.3,0.1,2,0.3    s1.2,0.6,1.7,1l-0.7,1.5c-1-0.8-1.9-1.2-2.9-1.2c-0.8,0-1.5,0.3-1.9,1s-0.7,1.7-0.7,3c0.2-0.5,0.6-0.9,1.1-1.1    S419.9,380.8,420.5,380.8L420.5,380.8z M420.1,386.5c0.6,0,1.1-0.2,1.4-0.6s0.5-0.9,0.5-1.5c0-0.6-0.2-1.1-0.5-1.5    s-0.8-0.6-1.4-0.6s-1.1,0.2-1.4,0.6s-0.6,0.9-0.6,1.5c0,0.6,0.2,1.1,0.6,1.5S419.5,386.5,420.1,386.5L420.1,386.5z"/>
		<path class="st1" d="M650.6,384.5v-1.6h4.8v1.6H650.6z M663,382.2c0.7,0.2,1.2,0.5,1.5,1s0.5,1.1,0.5,1.8c0,1-0.4,1.8-1.1,2.3    s-1.7,0.9-2.9,0.9c-0.8,0-1.5-0.1-2.2-0.4s-1.3-0.6-1.7-1l0.7-1.5c1,0.8,2,1.2,3.2,1.2c0.7,0,1.2-0.1,1.6-0.4s0.5-0.7,0.5-1.3    c0-0.6-0.2-1-0.5-1.3s-0.9-0.4-1.7-0.4h-1.5v-1.6h1.2c1.5,0,2.2-0.5,2.2-1.6c0-0.5-0.2-0.9-0.5-1.2s-0.8-0.4-1.3-0.4    c-0.5,0-1,0.1-1.5,0.3s-1,0.5-1.5,0.9l-0.7-1.5c0.4-0.4,1-0.7,1.7-1s1.4-0.4,2.1-0.4c1.1,0,2,0.3,2.7,0.8s1,1.3,1,2.2    c0,0.6-0.2,1.2-0.5,1.6S663.6,382,663,382.2L663,382.2z M674.8,386.3v1.7h-7.6v-1.5l3.8-4.1c0.4-0.5,0.8-0.9,1-1.4    s0.3-0.8,0.3-1.2c0-0.5-0.1-0.9-0.4-1.2s-0.7-0.4-1.3-0.4c-1,0-2,0.4-3.1,1.2l-0.7-1.5c0.4-0.4,1-0.7,1.7-1s1.4-0.4,2.1-0.4    c1.1,0,2,0.3,2.7,0.8s1,1.3,1,2.2c0,0.7-0.1,1.3-0.4,1.8s-0.7,1.2-1.4,1.9l-2.8,2.9L674.8,386.3z M678.8,385.8v1.5    c0,0.6-0.1,1.1-0.3,1.5s-0.5,0.9-1,1.4l-0.8-0.6c0.5-0.5,0.8-1,0.9-1.5h-1v-2.2L678.8,385.8z M680.5,376.7h7.9v1.5l-5.1,9.7h-2.2    l5.1-9.6h-5.6V376.7z M694.8,380.8c0.7,0,1.3,0.2,1.8,0.5s0.9,0.7,1.2,1.3s0.4,1.2,0.4,1.9c0,0.7-0.2,1.4-0.5,1.9s-0.8,1-1.3,1.3    s-1.2,0.5-2,0.5c-1.4,0-2.5-0.5-3.3-1.4s-1.2-2.3-1.2-4.1c0-1.2,0.2-2.3,0.6-3.2s0.9-1.6,1.6-2.1s1.5-0.7,2.5-0.7    c0.7,0,1.3,0.1,2,0.3s1.2,0.6,1.7,1l-0.7,1.5c-1-0.8-1.9-1.2-2.9-1.2c-0.8,0-1.5,0.3-1.9,1s-0.7,1.7-0.7,3    c0.2-0.5,0.6-0.9,1.1-1.1S694.2,380.8,694.8,380.8L694.8,380.8z M694.3,386.5c0.6,0,1.1-0.2,1.4-0.6s0.5-0.9,0.5-1.5    c0-0.6-0.2-1.1-0.5-1.5s-0.8-0.6-1.4-0.6s-1.1,0.2-1.4,0.6s-0.6,0.9-0.6,1.5c0,0.6,0.2,1.1,0.6,1.5S693.7,386.5,694.3,386.5z     M705.8,382.2c0.7,0.2,1.2,0.5,1.5,1s0.5,1.1,0.5,1.8c0,1-0.4,1.8-1.1,2.3s-1.8,0.8-3.1,0.8s-2.4-0.3-3.1-0.8s-1.1-1.3-1.1-2.3    c0-0.7,0.2-1.3,0.5-1.8s0.9-0.8,1.5-1c-0.6-0.2-1-0.5-1.3-1s-0.5-1-0.5-1.6c0-0.9,0.4-1.7,1.1-2.2s1.7-0.8,2.9-0.8    s2.2,0.3,2.9,0.8s1.1,1.3,1.1,2.2c0,0.6-0.2,1.2-0.5,1.6S706.4,382,705.8,382.2L705.8,382.2z M703.7,378.2c-1.3,0-2,0.5-2,1.6    c0,0.5,0.2,1,0.5,1.2s0.8,0.4,1.5,0.4s1.2-0.1,1.5-0.4s0.5-0.7,0.5-1.2C705.7,378.7,705,378.2,703.7,378.2z M703.7,386.5    c1.5,0,2.3-0.6,2.3-1.7s-0.8-1.7-2.3-1.7s-2.3,0.6-2.3,1.7S702.1,386.5,703.7,386.5z"/>
		<path class="st1" d="M907.6,382.2c0.7,0.2,1.2,0.5,1.5,1s0.5,1.1,0.5,1.8c0,1-0.4,1.8-1.1,2.3s-1.7,0.9-2.9,0.9    c-0.8,0-1.5-0.1-2.2-0.4s-1.3-0.6-1.7-1l0.7-1.5c1,0.8,2,1.2,3.2,1.2c0.7,0,1.2-0.1,1.6-0.4s0.5-0.7,0.5-1.3c0-0.6-0.2-1-0.5-1.3    s-0.9-0.4-1.7-0.4H904v-1.6h1.2c1.5,0,2.2-0.5,2.2-1.6c0-0.5-0.2-0.9-0.5-1.2s-0.8-0.4-1.3-0.4c-0.5,0-1,0.1-1.5,0.3    s-1,0.5-1.5,0.9l-0.7-1.5c0.4-0.4,1-0.7,1.7-1s1.4-0.4,2.1-0.4c1.1,0,2,0.3,2.7,0.8s1,1.3,1,2.2c0,0.6-0.2,1.2-0.5,1.6    S908.1,382,907.6,382.2L907.6,382.2z M919.4,386.3v1.7h-7.6v-1.5l3.8-4.1c0.4-0.5,0.8-0.9,1-1.4s0.3-0.8,0.3-1.2    c0-0.5-0.1-0.9-0.4-1.2s-0.7-0.4-1.3-0.4c-1,0-2,0.4-3.1,1.2l-0.7-1.5c0.4-0.4,1-0.7,1.7-1s1.4-0.4,2.1-0.4c1.1,0,2,0.3,2.7,0.8    s1,1.3,1,2.2c0,0.7-0.1,1.3-0.4,1.8s-0.7,1.2-1.4,1.9l-2.8,2.9L919.4,386.3z M923.3,385.8v1.5c0,0.6-0.1,1.1-0.3,1.5    s-0.5,0.9-1,1.4l-0.8-0.6c0.5-0.5,0.8-1,0.9-1.5h-1v-2.2L923.3,385.8z M925.1,376.7h7.9v1.5l-5.1,9.7h-2.2l5.1-9.6h-5.6V376.7z     M939.3,380.8c0.7,0,1.3,0.2,1.8,0.5s0.9,0.7,1.2,1.3s0.4,1.2,0.4,1.9c0,0.7-0.2,1.4-0.5,1.9s-0.8,1-1.3,1.3s-1.2,0.5-2,0.5    c-1.4,0-2.5-0.5-3.3-1.4s-1.2-2.3-1.2-4.1c0-1.2,0.2-2.3,0.6-3.2s0.9-1.6,1.6-2.1s1.5-0.7,2.5-0.7c0.7,0,1.3,0.1,2,0.3    s1.2,0.6,1.7,1l-0.7,1.5c-1-0.8-1.9-1.2-2.9-1.2c-0.8,0-1.5,0.3-1.9,1s-0.7,1.7-0.7,3c0.2-0.5,0.6-0.9,1.1-1.1    S938.7,380.8,939.3,380.8L939.3,380.8z M938.9,386.5c0.6,0,1.1-0.2,1.4-0.6s0.5-0.9,0.5-1.5c0-0.6-0.2-1.1-0.5-1.5    s-0.8-0.6-1.4-0.6s-1.1,0.2-1.4,0.6s-0.6,0.9-0.6,1.5c0,0.6,0.2,1.1,0.6,1.5S938.3,386.5,938.9,386.5z M944.3,376.7h7.9v1.5    L947,388h-2.2l5.1-9.6h-5.6V376.7z"/>
		<path class="st1" d="M209.6,561.2v7.8h-2v-1.2c-0.2,0.4-0.6,0.8-1,1s-0.9,0.3-1.4,0.3c-1.9,0-2.9-1.1-2.9-3.2v-4.7h2v4.7    c0,0.6,0.1,1,0.3,1.2s0.6,0.4,1.1,0.4c0.6,0,1-0.2,1.3-0.6s0.5-0.9,0.5-1.5v-4.4L209.6,561.2z M211.7,569v-7.8h2v7.8H211.7z     M211.6,557.5h2.2v2h-2.2V557.5z M220.3,561c0.9,0,1.6,0.3,2.1,0.8s0.7,1.3,0.7,2.4v4.8h-2v-4.7c0-0.6-0.1-1.1-0.3-1.3    s-0.6-0.4-1.1-0.4c-0.6,0-1,0.2-1.4,0.5s-0.5,0.8-0.5,1.5v4.4h-2v-7.8h2v1.2c0.3-0.4,0.6-0.8,1.1-1S219.8,561,220.3,561L220.3,561    z M229.1,567.6c0.2,0,0.5,0,0.7,0l-0.1,1.5c-0.3,0-0.6,0-0.9,0c-1.1,0-1.9-0.3-2.4-0.8s-0.8-1.3-0.8-2.3v-3.4h-1.5v-1.5h1.5v-2.3    h2v2.3h2.1v1.5h-2.1v3.4C227.7,567.1,228.2,567.6,229.1,567.6L229.1,567.6z M237,563.2c0.7,0.2,1.2,0.5,1.5,1s0.5,1.1,0.5,1.8    c0,1-0.4,1.8-1.1,2.3s-1.8,0.8-3.1,0.8s-2.4-0.3-3.1-0.8s-1.1-1.3-1.1-2.3c0-0.7,0.2-1.3,0.5-1.8s0.9-0.8,1.5-1    c-0.6-0.2-1-0.5-1.3-1s-0.5-1-0.5-1.6c0-0.9,0.4-1.7,1.1-2.2s1.7-0.8,2.9-0.8s2.2,0.3,2.9,0.8s1.1,1.3,1.1,2.2    c0,0.6-0.2,1.2-0.5,1.6S237.5,563,237,563.2L237,563.2z M234.8,559.2c-1.3,0-2,0.5-2,1.6c0,0.5,0.2,1,0.5,1.2s0.8,0.4,1.5,0.4    s1.2-0.1,1.5-0.4s0.5-0.7,0.5-1.2C236.8,559.7,236.1,559.2,234.8,559.2z M234.8,567.5c1.5,0,2.3-0.6,2.3-1.7s-0.8-1.7-2.3-1.7    s-2.3,0.6-2.3,1.7S233.3,567.5,234.8,567.5z"/>
		<path class="st1" d="M417.2,563.2c0.7,0.2,1.2,0.5,1.5,1s0.5,1.1,0.5,1.8c0,1-0.4,1.8-1.1,2.3s-1.8,0.8-3.1,0.8s-2.4-0.3-3.1-0.8    s-1.1-1.3-1.1-2.3c0-0.7,0.2-1.3,0.5-1.8s0.9-0.8,1.5-1c-0.6-0.2-1-0.5-1.3-1s-0.5-1-0.5-1.6c0-0.9,0.4-1.7,1.1-2.2    s1.7-0.8,2.9-0.8s2.2,0.3,2.9,0.8s1.1,1.3,1.1,2.2c0,0.6-0.2,1.2-0.5,1.6S417.7,563,417.2,563.2L417.2,563.2z M415,559.2    c-1.3,0-2,0.5-2,1.6c0,0.5,0.2,1,0.5,1.2s0.8,0.4,1.5,0.4s1.2-0.1,1.5-0.4s0.5-0.7,0.5-1.2C417,559.7,416.3,559.2,415,559.2z     M415,567.5c1.5,0,2.3-0.6,2.3-1.7s-0.8-1.7-2.3-1.7s-2.3,0.6-2.3,1.7S413.5,567.5,415,567.5z"/>
		<path class="st1" d="M679,569.1c-1.3,0-2.4-0.5-3.1-1.5s-1.1-2.4-1.1-4.3c0-1.9,0.4-3.3,1.1-4.3s1.7-1.5,3.1-1.5s2.4,0.5,3.1,1.5    s1.1,2.4,1.1,4.3c0,1.9-0.4,3.3-1.1,4.3S680.3,569.1,679,569.1z M679,567.5c0.7,0,1.3-0.3,1.6-1s0.5-1.7,0.5-3.2    c0-1.4-0.2-2.5-0.5-3.1s-0.9-1-1.6-1s-1.3,0.3-1.6,1s-0.5,1.7-0.5,3.1c0,1.5,0.2,2.5,0.5,3.2S678.3,567.5,679,567.5z"/>
		<path class="st1" d="M921.3,567.3v1.7h-7.6v-1.5l3.8-4.1c0.4-0.5,0.8-0.9,1-1.4s0.3-0.8,0.3-1.2c0-0.5-0.1-0.9-0.4-1.2    s-0.7-0.4-1.3-0.4c-1,0-2,0.4-3.1,1.2l-0.7-1.5c0.4-0.4,1-0.7,1.7-1s1.4-0.4,2.1-0.4c1.1,0,2,0.3,2.7,0.8s1,1.3,1,2.2    c0,0.7-0.1,1.3-0.4,1.8s-0.7,1.2-1.4,1.9l-2.8,2.9L921.3,567.3z M927.6,561.8c0.7,0,1.3,0.2,1.9,0.5s1,0.7,1.2,1.3    s0.4,1.2,0.4,1.9c0,0.7-0.2,1.4-0.5,2s-0.8,1-1.4,1.3s-1.4,0.5-2.2,0.5c-0.7,0-1.4-0.1-2.1-0.4s-1.3-0.6-1.7-1l0.7-1.5    c1,0.8,2.1,1.2,3.1,1.2c0.7,0,1.2-0.2,1.6-0.5s0.6-0.9,0.6-1.5c0-0.6-0.2-1.1-0.6-1.5s-0.9-0.6-1.5-0.6c-0.4,0-0.9,0.1-1.2,0.2    s-0.7,0.4-1,0.7h-1.2v-6.6h7.1v1.6h-5.1v3C926.1,562,926.8,561.8,927.6,561.8L927.6,561.8z M937.2,561.8c0.7,0,1.3,0.2,1.9,0.5    s1,0.7,1.2,1.3s0.4,1.2,0.4,1.9c0,0.7-0.2,1.4-0.5,2s-0.8,1-1.4,1.3s-1.4,0.5-2.2,0.5c-0.7,0-1.4-0.1-2.1-0.4s-1.3-0.6-1.7-1    l0.7-1.5c1,0.8,2.1,1.2,3.1,1.2c0.7,0,1.2-0.2,1.6-0.5s0.6-0.9,0.6-1.5c0-0.6-0.2-1.1-0.6-1.5s-0.9-0.6-1.5-0.6    c-0.4,0-0.9,0.1-1.2,0.2s-0.7,0.4-1,0.7h-1.2v-6.6h7.1v1.6h-5.1v3C935.7,562,936.4,561.8,937.2,561.8L937.2,561.8z"/>
		<path class="st1" d="M204.3,744.2v7.8h-2v-1.2c-0.2,0.4-0.6,0.8-1,1s-0.9,0.3-1.4,0.3c-1.9,0-2.9-1.1-2.9-3.2v-4.7h2v4.7    c0,0.6,0.1,1,0.3,1.2s0.6,0.4,1.1,0.4c0.6,0,1-0.2,1.3-0.6s0.5-0.9,0.5-1.5v-4.4L204.3,744.2z M206.4,752v-7.8h2v7.8H206.4z     M206.3,740.5h2.2v2h-2.2V740.5z M215,744c0.9,0,1.6,0.3,2.1,0.8s0.7,1.3,0.7,2.4v4.8h-2v-4.7c0-0.6-0.1-1.1-0.3-1.3    s-0.6-0.4-1.1-0.4c-0.6,0-1,0.2-1.4,0.5s-0.5,0.8-0.5,1.5v4.4h-2v-7.8h2v1.2c0.3-0.4,0.6-0.8,1.1-1S214.5,744,215,744L215,744z     M223.8,750.6c0.2,0,0.5,0,0.7,0l-0.1,1.5c-0.3,0-0.6,0-0.9,0c-1.1,0-1.9-0.3-2.4-0.8s-0.8-1.3-0.8-2.3v-3.4h-1.5v-1.5h1.5v-2.3h2    v2.3h2.1v1.5h-2.1v3.4C222.4,750.1,222.9,750.6,223.8,750.6L223.8,750.6z M230.2,744.8c0.7,0,1.3,0.2,1.8,0.5s0.9,0.7,1.2,1.3    s0.4,1.2,0.4,1.9c0,0.7-0.2,1.4-0.5,1.9s-0.8,1-1.3,1.3s-1.2,0.5-2,0.5c-1.4,0-2.5-0.5-3.3-1.4s-1.2-2.3-1.2-4.1    c0-1.2,0.2-2.3,0.6-3.2s0.9-1.6,1.6-2.1s1.5-0.7,2.5-0.7c0.7,0,1.3,0.1,2,0.3s1.2,0.6,1.7,1l-0.7,1.5c-1-0.8-1.9-1.2-2.9-1.2    c-0.8,0-1.5,0.3-1.9,1s-0.7,1.7-0.7,3c0.2-0.5,0.6-0.9,1.1-1.1S229.6,744.8,230.2,744.8L230.2,744.8z M229.8,750.5    c0.6,0,1.1-0.2,1.4-0.6s0.5-0.9,0.5-1.5c0-0.6-0.2-1.1-0.5-1.5s-0.8-0.6-1.4-0.6s-1.1,0.2-1.4,0.6s-0.6,0.9-0.6,1.5    c0,0.6,0.2,1.1,0.6,1.5S229.2,750.5,229.8,750.5L229.8,750.5z M243.5,748.2v1.6h-1.6v2.2h-2v-2.2H235v-1.5l5.2-7.6h1.7v7.5    L243.5,748.2z M236.9,748.2h3v-4.3L236.9,748.2z"/>
		<path class="st1" d="M410.9,744.8c0.7,0,1.3,0.2,1.8,0.5s0.9,0.7,1.2,1.3s0.4,1.2,0.4,1.9c0,0.7-0.2,1.4-0.5,1.9s-0.8,1-1.3,1.3    s-1.2,0.5-2,0.5c-1.4,0-2.5-0.5-3.3-1.4s-1.2-2.3-1.2-4.1c0-1.2,0.2-2.3,0.6-3.2s0.9-1.6,1.6-2.1s1.5-0.7,2.5-0.7    c0.7,0,1.3,0.1,2,0.3s1.2,0.6,1.7,1l-0.7,1.5c-1-0.8-1.9-1.2-2.9-1.2c-0.8,0-1.5,0.3-1.9,1s-0.7,1.7-0.7,3    c0.2-0.5,0.6-0.9,1.1-1.1S410.3,744.8,410.9,744.8L410.9,744.8z M410.5,750.5c0.6,0,1.1-0.2,1.4-0.6s0.5-0.9,0.5-1.5    c0-0.6-0.2-1.1-0.5-1.5s-0.8-0.6-1.4-0.6s-1.1,0.2-1.4,0.6s-0.6,0.9-0.6,1.5c0,0.6,0.2,1.1,0.6,1.5S409.9,750.5,410.5,750.5    L410.5,750.5z M424.2,748.2v1.6h-1.6v2.2h-2v-2.2h-4.9v-1.5l5.2-7.6h1.7v7.5L424.2,748.2z M417.6,748.2h3v-4.3L417.6,748.2z"/>
		<path class="st1" d="M679,752.1c-1.3,0-2.4-0.5-3.1-1.5s-1.1-2.4-1.1-4.3c0-1.9,0.4-3.3,1.1-4.3s1.7-1.5,3.1-1.5s2.4,0.5,3.1,1.5    s1.1,2.4,1.1,4.3c0,1.9-0.4,3.3-1.1,4.3S680.3,752.1,679,752.1z M679,750.5c0.7,0,1.3-0.3,1.6-1s0.5-1.7,0.5-3.2    c0-1.4-0.2-2.5-0.5-3.1s-0.9-1-1.6-1s-1.3,0.3-1.6,1s-0.5,1.7-0.5,3.1c0,1.5,0.2,2.5,0.5,3.2S678.3,750.5,679,750.5z"/>
		<path class="st1" d="M825.4,750.3h2.4v1.7h-7v-1.7h2.4v-7.3l-1.9,1.2l-0.8-1.5l3.3-2h1.5V750.3z M835.7,746.2    c0.7,0.2,1.2,0.5,1.5,1s0.5,1.1,0.5,1.8c0,1-0.4,1.8-1.1,2.3s-1.8,0.8-3.1,0.8s-2.4-0.3-3.1-0.8s-1.1-1.3-1.1-2.3    c0-0.7,0.2-1.3,0.5-1.8s0.9-0.8,1.5-1c-0.6-0.2-1-0.5-1.3-1s-0.5-1-0.5-1.6c0-0.9,0.4-1.7,1.1-2.2s1.7-0.8,2.9-0.8    s2.2,0.3,2.9,0.8s1.1,1.3,1.1,2.2c0,0.6-0.2,1.2-0.5,1.6S836.2,746,835.7,746.2L835.7,746.2z M833.5,742.2c-1.3,0-2,0.5-2,1.6    c0,0.5,0.2,1,0.5,1.2s0.8,0.4,1.5,0.4s1.2-0.1,1.5-0.4s0.5-0.7,0.5-1.2C835.5,742.7,834.8,742.2,833.5,742.2z M833.5,750.5    c1.5,0,2.3-0.6,2.3-1.7s-0.8-1.7-2.3-1.7s-2.3,0.6-2.3,1.7S832,750.5,833.5,750.5z M841.4,749.8v1.5c0,0.6-0.1,1.1-0.3,1.5    s-0.5,0.9-1,1.4l-0.8-0.6c0.5-0.5,0.8-1,0.9-1.5h-1v-2.2H841.4z M851.4,748.2v1.6h-1.6v2.2h-2v-2.2h-4.9v-1.5l5.2-7.6h1.7v7.5    L851.4,748.2z M844.9,748.2h3v-4.3L844.9,748.2z M861,748.2v1.6h-1.6v2.2h-2v-2.2h-4.9v-1.5l5.2-7.6h1.7v7.5L861,748.2z     M854.5,748.2h3v-4.3L854.5,748.2z M867,744.8c0.7,0,1.3,0.2,1.8,0.5s0.9,0.7,1.2,1.3s0.4,1.2,0.4,1.9c0,0.7-0.2,1.4-0.5,1.9    s-0.8,1-1.3,1.3s-1.2,0.5-2,0.5c-1.4,0-2.5-0.5-3.3-1.4s-1.2-2.3-1.2-4.1c0-1.2,0.2-2.3,0.6-3.2s0.9-1.6,1.6-2.1s1.5-0.7,2.5-0.7    c0.7,0,1.3,0.1,2,0.3s1.2,0.6,1.7,1l-0.7,1.5c-1-0.8-1.9-1.2-2.9-1.2c-0.8,0-1.5,0.3-1.9,1s-0.7,1.7-0.7,3    c0.2-0.5,0.6-0.9,1.1-1.1S866.4,744.8,867,744.8L867,744.8z M866.5,750.5c0.6,0,1.1-0.2,1.4-0.6s0.5-0.9,0.5-1.5    c0-0.6-0.2-1.1-0.5-1.5s-0.8-0.6-1.4-0.6s-1.1,0.2-1.4,0.6s-0.6,0.9-0.6,1.5c0,0.6,0.2,1.1,0.6,1.5S865.9,750.5,866.5,750.5    L866.5,750.5z M874.2,749.8v1.5c0,0.6-0.1,1.1-0.3,1.5s-0.5,0.9-1,1.4l-0.8-0.6c0.5-0.5,0.8-1,0.9-1.5h-1v-2.2H874.2z     M875.9,740.7h7.9v1.5l-5.1,9.7h-2.2l5.1-9.6h-5.6V740.7z M893.8,748.2v1.6h-1.6v2.2h-2v-2.2h-4.9v-1.5l5.2-7.6h1.7v7.5    L893.8,748.2z M887.2,748.2h3v-4.3L887.2,748.2z M903.4,748.2v1.6h-1.6v2.2h-2v-2.2h-4.9v-1.5l5.2-7.6h1.7v7.5L903.4,748.2z     M896.8,748.2h3v-4.3L896.8,748.2z M906.9,749.8v1.5c0,0.6-0.1,1.1-0.3,1.5s-0.5,0.9-1,1.4l-0.8-0.6c0.5-0.5,0.8-1,0.9-1.5h-1    v-2.2H906.9z M912.6,752.1c-1.3,0-2.4-0.5-3.1-1.5s-1.1-2.4-1.1-4.3c0-1.9,0.4-3.3,1.1-4.3s1.7-1.5,3.1-1.5s2.4,0.5,3.1,1.5    s1.1,2.4,1.1,4.3c0,1.9-0.4,3.3-1.1,4.3S913.9,752.1,912.6,752.1z M912.6,750.5c0.7,0,1.3-0.3,1.6-1s0.5-1.7,0.5-3.2    c0-1.4-0.2-2.5-0.5-3.1s-0.9-1-1.6-1s-1.3,0.3-1.6,1s-0.5,1.7-0.5,3.1c0,1.5,0.2,2.5,0.5,3.2S911.9,750.5,912.6,750.5z     M918.3,740.7h7.9v1.5L921,752h-2.2l5.1-9.6h-5.6V740.7z M933.5,746.2c0.7,0.2,1.2,0.5,1.5,1s0.5,1.1,0.5,1.8c0,1-0.4,1.8-1.1,2.3    s-1.7,0.9-2.9,0.9c-0.8,0-1.5-0.1-2.2-0.4s-1.3-0.6-1.7-1l0.7-1.5c1,0.8,2,1.2,3.2,1.2c0.7,0,1.2-0.1,1.6-0.4s0.5-0.7,0.5-1.3    c0-0.6-0.2-1-0.5-1.3s-0.9-0.4-1.7-0.4H930v-1.6h1.2c1.5,0,2.2-0.5,2.2-1.6c0-0.5-0.2-0.9-0.5-1.2s-0.8-0.4-1.3-0.4    c-0.5,0-1,0.1-1.5,0.3s-1,0.5-1.5,0.9l-0.7-1.5c0.4-0.4,1-0.7,1.7-1s1.4-0.4,2.1-0.4c1.1,0,2,0.3,2.7,0.8s1,1.3,1,2.2    c0,0.6-0.2,1.2-0.5,1.6S934.1,746,933.5,746.2L933.5,746.2z M939.7,749.8v1.5c0,0.6-0.1,1.1-0.3,1.5s-0.5,0.9-1,1.4l-0.8-0.6    c0.5-0.5,0.8-1,0.9-1.5h-1v-2.2H939.7z M941.4,740.7h7.9v1.5l-5.1,9.7H942l5.1-9.6h-5.6V740.7z M955,752.1c-1.3,0-2.4-0.5-3.1-1.5    s-1.1-2.4-1.1-4.3c0-1.9,0.4-3.3,1.1-4.3s1.7-1.5,3.1-1.5s2.4,0.5,3.1,1.5s1.1,2.4,1.1,4.3c0,1.9-0.4,3.3-1.1,4.3    S956.3,752.1,955,752.1z M955,750.5c0.7,0,1.3-0.3,1.6-1s0.5-1.7,0.5-3.2c0-1.4-0.2-2.5-0.5-3.1s-0.9-1-1.6-1s-1.3,0.3-1.6,1    s-0.5,1.7-0.5,3.1c0,1.5,0.2,2.5,0.5,3.2S954.2,750.5,955,750.5z M964.2,740.6c1.4,0,2.5,0.5,3.3,1.4s1.2,2.3,1.2,4.1    c0,1.2-0.2,2.3-0.6,3.2s-0.9,1.6-1.6,2.1s-1.5,0.7-2.5,0.7c-0.7,0-1.3-0.1-2-0.3s-1.2-0.6-1.7-1l0.7-1.5c1,0.8,1.9,1.2,2.9,1.2    c0.8,0,1.5-0.4,1.9-1.1s0.7-1.7,0.7-3.1c-0.2,0.5-0.6,0.9-1.1,1.1s-1,0.4-1.6,0.4c-0.7,0-1.3-0.2-1.8-0.5s-0.9-0.7-1.2-1.3    s-0.4-1.2-0.4-1.9c0-0.7,0.2-1.4,0.5-1.9s0.8-1,1.3-1.3S963.5,740.6,964.2,740.6L964.2,740.6z M964.3,746.3c0.6,0,1.1-0.2,1.4-0.6    s0.6-0.9,0.6-1.5c0-0.6-0.2-1.1-0.6-1.5s-0.9-0.6-1.4-0.6c-0.6,0-1.1,0.2-1.4,0.6s-0.5,0.9-0.5,1.5s0.2,1.1,0.5,1.5    S963.7,746.3,964.3,746.3z M972.5,749.8v1.5c0,0.6-0.1,1.1-0.3,1.5s-0.5,0.9-1,1.4l-0.8-0.6c0.5-0.5,0.8-1,0.9-1.5h-1v-2.2H972.5z     M978.7,744.8c0.7,0,1.3,0.2,1.9,0.5s1,0.7,1.2,1.3s0.4,1.2,0.4,1.9c0,0.7-0.2,1.4-0.5,2s-0.8,1-1.4,1.3s-1.4,0.5-2.2,0.5    c-0.7,0-1.4-0.1-2.1-0.4s-1.3-0.6-1.7-1l0.7-1.5c1,0.8,2.1,1.2,3.1,1.2c0.7,0,1.2-0.2,1.6-0.5s0.6-0.9,0.6-1.5    c0-0.6-0.2-1.1-0.6-1.5s-0.9-0.6-1.5-0.6c-0.4,0-0.9,0.1-1.2,0.2s-0.7,0.4-1,0.7h-1.2v-6.6h7.1v1.6h-5.1v3    C977.3,745,977.9,744.8,978.7,744.8L978.7,744.8z M988.3,744.8c0.7,0,1.3,0.2,1.9,0.5s1,0.7,1.2,1.3s0.4,1.2,0.4,1.9    c0,0.7-0.2,1.4-0.5,2s-0.8,1-1.4,1.3s-1.4,0.5-2.2,0.5c-0.7,0-1.4-0.1-2.1-0.4s-1.3-0.6-1.7-1l0.7-1.5c1,0.8,2.1,1.2,3.1,1.2    c0.7,0,1.2-0.2,1.6-0.5s0.6-0.9,0.6-1.5c0-0.6-0.2-1.1-0.6-1.5s-0.9-0.6-1.5-0.6c-0.4,0-0.9,0.1-1.2,0.2s-0.7,0.4-1,0.7h-1.2v-6.6    h7.1v1.6h-5.1v3C986.9,745,987.5,744.8,988.3,744.8L988.3,744.8z M998.9,750.3h2.4v1.7h-7v-1.7h2.4v-7.3l-1.9,1.2l-0.8-1.5l3.3-2    h1.5V750.3z M1005.2,749.8v1.5c0,0.6-0.1,1.1-0.3,1.5s-0.5,0.9-1,1.4l-0.8-0.6c0.5-0.5,0.8-1,0.9-1.5h-1v-2.2H1005.2z     M1011.6,744.8c0.7,0,1.3,0.2,1.8,0.5s0.9,0.7,1.2,1.3s0.4,1.2,0.4,1.9c0,0.7-0.2,1.4-0.5,1.9s-0.8,1-1.3,1.3s-1.2,0.5-2,0.5    c-1.4,0-2.5-0.5-3.3-1.4s-1.2-2.3-1.2-4.1c0-1.2,0.2-2.3,0.6-3.2s0.9-1.6,1.6-2.1s1.5-0.7,2.5-0.7c0.7,0,1.3,0.1,2,0.3    s1.2,0.6,1.7,1l-0.7,1.5c-1-0.8-1.9-1.2-2.9-1.2c-0.8,0-1.5,0.3-1.9,1s-0.7,1.7-0.7,3c0.2-0.5,0.6-0.9,1.1-1.1    S1011,744.8,1011.6,744.8L1011.6,744.8z M1011.2,750.5c0.6,0,1.1-0.2,1.4-0.6s0.5-0.9,0.5-1.5c0-0.6-0.2-1.1-0.5-1.5    s-0.8-0.6-1.4-0.6s-1.1,0.2-1.4,0.6s-0.6,0.9-0.6,1.5c0,0.6,0.2,1.1,0.6,1.5S1010.6,750.5,1011.2,750.5L1011.2,750.5z M1022,750.3    h2.4v1.7h-7v-1.7h2.4v-7.3l-1.9,1.2l-0.8-1.5l3.3-2h1.5V750.3z M1030.7,744.8c0.7,0,1.3,0.2,1.9,0.5s1,0.7,1.2,1.3    s0.4,1.2,0.4,1.9c0,0.7-0.2,1.4-0.5,2s-0.8,1-1.4,1.3s-1.4,0.5-2.2,0.5c-0.7,0-1.4-0.1-2.1-0.4s-1.3-0.6-1.7-1l0.7-1.5    c1,0.8,2.1,1.2,3.1,1.2c0.7,0,1.2-0.2,1.6-0.5s0.6-0.9,0.6-1.5c0-0.6-0.2-1.1-0.6-1.5s-0.9-0.6-1.5-0.6c-0.4,0-0.9,0.1-1.2,0.2    s-0.7,0.4-1,0.7h-1.2v-6.6h7.1v1.6h-5.1v3C1029.2,745,1029.9,744.8,1030.7,744.8L1030.7,744.8z"/>
		<path class="st1" d="M305.6,195.7h1.6V207h-1.8v-7.5l-3,5.6H301l-3-5.6l0,7.4h-1.8v-11.3h1.6l3.9,7.4L305.6,195.7z M316.4,203.4    H311c0.1,0.7,0.3,1.3,0.7,1.6s0.9,0.5,1.6,0.5c0.9,0,1.7-0.3,2.4-0.8l0.6,1.4c-0.4,0.3-0.8,0.5-1.4,0.7s-1.1,0.3-1.7,0.3    c-1.3,0-2.3-0.4-3-1.1s-1.1-1.7-1.1-3c0-0.8,0.2-1.5,0.5-2.1s0.8-1.1,1.4-1.4s1.2-0.5,2-0.5c1.1,0,1.9,0.3,2.6,1s0.9,1.6,0.9,2.9    V203.4z M312.9,200.4c-0.5,0-1,0.2-1.3,0.5s-0.5,0.8-0.6,1.5h3.6c0-0.7-0.2-1.1-0.5-1.5S313.5,200.4,312.9,200.4z M327.3,199    c0.9,0,1.5,0.3,2,0.8s0.7,1.3,0.7,2.4v4.8h-2v-4.7c0-0.6-0.1-1-0.3-1.3s-0.5-0.4-1-0.4c-0.5,0-0.9,0.2-1.2,0.5s-0.4,0.9-0.4,1.5    v4.4h-2v-4.7c0-0.6-0.1-1-0.3-1.3s-0.5-0.4-1-0.4c-0.5,0-0.9,0.2-1.2,0.5s-0.4,0.9-0.4,1.5v4.4h-2v-7.8h2v1.1c0.2-0.4,0.6-0.7,1-1    s0.9-0.3,1.4-0.3c1.2,0,2,0.5,2.4,1.5c0.2-0.5,0.6-0.8,1.1-1.1S326.7,199,327.3,199L327.3,199z M335.5,207.1    c-0.8,0-1.5-0.2-2.1-0.5s-1.1-0.8-1.4-1.4s-0.5-1.3-0.5-2.2s0.2-1.5,0.5-2.2s0.8-1.1,1.4-1.4s1.3-0.5,2.1-0.5s1.5,0.2,2.1,0.5    s1.1,0.8,1.4,1.4s0.5,1.3,0.5,2.2s-0.2,1.5-0.5,2.2s-0.8,1.1-1.4,1.4S336.3,207.1,335.5,207.1z M335.5,205.6    c0.7,0,1.1-0.2,1.5-0.6s0.5-1.1,0.5-1.9c0-0.8-0.2-1.4-0.5-1.9s-0.8-0.6-1.5-0.6s-1.1,0.2-1.5,0.6s-0.5,1.1-0.5,1.9    c0,0.8,0.2,1.5,0.5,1.9S334.9,205.6,335.5,205.6z M346.3,200.6l-1.2,0.1c-1.3,0.1-2,0.8-2,2v4.2h-2v-7.8h1.9v1.4    c0.4-0.9,1.2-1.5,2.5-1.5l0.6,0L346.3,200.6z M352.8,199.2h2l-4.7,10.7h-2l1.4-3.2l-3.3-7.5h2.1l2.2,5.5L352.8,199.2z     M364.9,207.1c-1.5,0-2.7-0.4-3.5-1.2c-0.8-0.8-1.2-2-1.2-3.5v-6.7h2v6.8c0,1,0.2,1.7,0.7,2.2s1.1,0.7,2,0.7c0.9,0,1.5-0.3,2-0.8    s0.7-1.2,0.7-2.2v-6.8h2v6.7c0,1.5-0.4,2.7-1.2,3.5S366.4,207.1,364.9,207.1L364.9,207.1z M374.6,207.1c-0.7,0-1.3-0.1-1.9-0.3    s-1.1-0.4-1.5-0.7l0.6-1.4c0.8,0.6,1.8,0.9,2.9,0.9c0.5,0,0.8-0.1,1-0.2s0.4-0.4,0.4-0.6c0-0.2-0.1-0.4-0.2-0.5s-0.5-0.2-0.9-0.4    l-1.3-0.3c-0.7-0.2-1.3-0.4-1.6-0.8s-0.5-0.8-0.5-1.4c0-0.5,0.1-0.9,0.4-1.3s0.7-0.7,1.1-0.9s1-0.3,1.7-0.3c0.6,0,1.1,0.1,1.6,0.3    s1,0.4,1.4,0.7l-0.6,1.4c-0.8-0.6-1.6-0.9-2.4-0.9c-0.4,0-0.8,0.1-1,0.2s-0.4,0.4-0.4,0.7c0,0.2,0.1,0.4,0.2,0.5s0.4,0.2,0.7,0.3    l1.3,0.3c0.8,0.2,1.3,0.4,1.7,0.8s0.5,0.9,0.5,1.4c0,0.7-0.3,1.3-0.9,1.7S375.7,207.1,374.6,207.1L374.6,207.1z M382.9,199    c1.1,0,1.9,0.3,2.4,0.8s0.8,1.4,0.8,2.5v4.8h-1.9v-1.2c-0.2,0.4-0.5,0.7-0.9,1s-0.8,0.4-1.4,0.4c-0.5,0-1-0.1-1.4-0.3    s-0.8-0.5-1-0.9s-0.4-0.8-0.4-1.2c0-0.6,0.1-1,0.4-1.4s0.8-0.6,1.4-0.7s1.6-0.2,2.7-0.2h0.4V202c0-0.5-0.1-0.9-0.3-1.2    s-0.6-0.4-1.1-0.4c-0.4,0-0.9,0.1-1.3,0.2s-0.9,0.3-1.3,0.6l-0.6-1.4c0.4-0.3,1-0.5,1.6-0.7S382.3,199,382.9,199L382.9,199z     M382.4,205.7c0.5,0,1-0.2,1.3-0.5s0.5-0.8,0.5-1.4v-0.3h-0.3c-0.7,0-1.3,0-1.7,0.1s-0.7,0.2-0.8,0.3s-0.3,0.4-0.3,0.7    c0,0.3,0.1,0.6,0.4,0.8S382.1,205.7,382.4,205.7L382.4,205.7z M395.8,199.2v7.1c0,1.2-0.3,2.2-1,2.8s-1.7,0.9-3,0.9    c-0.7,0-1.3-0.1-2-0.3s-1.2-0.4-1.6-0.7l0.6-1.4c1,0.6,2,0.9,3,0.9c1.4,0,2.1-0.7,2.1-2v-1c-0.2,0.4-0.6,0.8-1,1s-1,0.4-1.5,0.4    c-0.7,0-1.3-0.2-1.8-0.5s-0.9-0.8-1.2-1.4s-0.4-1.3-0.4-2s0.1-1.4,0.4-2s0.7-1.1,1.2-1.4s1.1-0.5,1.8-0.5c0.6,0,1.1,0.1,1.5,0.4    s0.8,0.6,1,1v-1.2L395.8,199.2z M391.8,205.2c0.6,0,1.1-0.2,1.5-0.6s0.5-1,0.5-1.7c0-0.7-0.2-1.3-0.5-1.7s-0.9-0.6-1.5-0.6    c-0.6,0-1.1,0.2-1.5,0.6s-0.5,1-0.5,1.7c0,0.7,0.2,1.3,0.5,1.7S391.1,205.2,391.8,205.2z M404.7,203.4h-5.3    c0.1,0.7,0.3,1.3,0.7,1.6s0.9,0.5,1.6,0.5c0.9,0,1.7-0.3,2.4-0.8l0.6,1.4c-0.4,0.3-0.8,0.5-1.4,0.7s-1.1,0.3-1.7,0.3    c-1.3,0-2.3-0.4-3-1.1s-1.1-1.7-1.1-3c0-0.8,0.2-1.5,0.5-2.1s0.8-1.1,1.4-1.4s1.2-0.5,2-0.5c1.1,0,1.9,0.3,2.6,1s0.9,1.6,0.9,2.9    V203.4z M401.3,200.4c-0.5,0-1,0.2-1.3,0.5s-0.5,0.8-0.6,1.5h3.6c0-0.7-0.2-1.1-0.5-1.5S401.8,200.4,401.3,200.4z M409.6,203.3    v-1.2h8v1.2H409.6z M430.8,195.7h1.9V207h-1.6l-6-7.9v7.9h-1.9v-11.3h1.5l6,7.9V195.7z M442.2,199.2v7.8h-2v-1.2    c-0.2,0.4-0.6,0.8-1,1s-0.9,0.3-1.4,0.3c-1.9,0-2.9-1.1-2.9-3.2v-4.7h2v4.7c0,0.6,0.1,1,0.3,1.2s0.6,0.4,1.1,0.4    c0.6,0,1-0.2,1.3-0.6s0.5-0.9,0.5-1.5v-4.4L442.2,199.2z M453.5,199c0.9,0,1.5,0.3,2,0.8s0.7,1.3,0.7,2.4v4.8h-2v-4.7    c0-0.6-0.1-1-0.3-1.3s-0.5-0.4-1-0.4c-0.5,0-0.9,0.2-1.2,0.5s-0.4,0.9-0.4,1.5v4.4h-2v-4.7c0-0.6-0.1-1-0.3-1.3s-0.5-0.4-1-0.4    c-0.5,0-0.9,0.2-1.2,0.5s-0.4,0.9-0.4,1.5v4.4h-2v-7.8h2v1.1c0.2-0.4,0.6-0.7,1-1s0.9-0.3,1.4-0.3c1.2,0,2,0.5,2.4,1.5    c0.2-0.5,0.6-0.8,1.1-1.1S453,199,453.5,199L453.5,199z M462.7,199c0.7,0,1.3,0.2,1.8,0.5s0.9,0.8,1.2,1.4s0.4,1.3,0.4,2.1    s-0.1,1.5-0.4,2.2s-0.7,1.1-1.2,1.4s-1.1,0.5-1.8,0.5c-0.6,0-1.1-0.1-1.5-0.4s-0.8-0.6-1-1v1.3h-2v-11.3h2v4.6    c0.2-0.4,0.6-0.8,1-1S462.1,199,462.7,199L462.7,199z M462.2,205.6c0.6,0,1.1-0.2,1.5-0.7s0.5-1.1,0.5-1.9c0-0.8-0.2-1.4-0.5-1.8    s-0.8-0.6-1.5-0.6s-1.1,0.2-1.5,0.6s-0.5,1.1-0.5,1.9s0.2,1.4,0.5,1.9S461.5,205.6,462.2,205.6z M474.7,203.4h-5.3    c0.1,0.7,0.3,1.3,0.7,1.6s0.9,0.5,1.6,0.5c0.9,0,1.7-0.3,2.4-0.8l0.6,1.4c-0.4,0.3-0.8,0.5-1.4,0.7s-1.1,0.3-1.7,0.3    c-1.3,0-2.3-0.4-3-1.1s-1.1-1.7-1.1-3c0-0.8,0.2-1.5,0.5-2.1s0.8-1.1,1.4-1.4s1.2-0.5,2-0.5c1.1,0,1.9,0.3,2.6,1s0.9,1.6,0.9,2.9    V203.4z M471.2,200.4c-0.5,0-1,0.2-1.3,0.5s-0.5,0.8-0.6,1.5h3.6c0-0.7-0.2-1.1-0.5-1.5S471.8,200.4,471.2,200.4z M481.5,200.6    l-1.2,0.1c-1.3,0.1-2,0.8-2,2v4.2h-2v-7.8h1.9v1.4c0.4-0.9,1.2-1.5,2.5-1.5l0.6,0L481.5,200.6z M490.3,207.1    c-0.8,0-1.5-0.2-2.1-0.5s-1.1-0.8-1.4-1.4s-0.5-1.3-0.5-2.2s0.2-1.5,0.5-2.2s0.8-1.1,1.4-1.4s1.3-0.5,2.1-0.5s1.5,0.2,2.1,0.5    s1.1,0.8,1.4,1.4s0.5,1.3,0.5,2.2s-0.2,1.5-0.5,2.2s-0.8,1.1-1.4,1.4S491.1,207.1,490.3,207.1z M490.3,205.6    c0.7,0,1.1-0.2,1.5-0.6s0.5-1.1,0.5-1.9c0-0.8-0.2-1.4-0.5-1.9s-0.8-0.6-1.5-0.6s-1.1,0.2-1.5,0.6s-0.5,1.1-0.5,1.9    c0,0.8,0.2,1.5,0.5,1.9S489.7,205.6,490.3,205.6z M498.5,199.2h2.1v1.5h-2.1v6.3h-2v-6.3H495v-1.5h1.5c0-1.1,0.3-2,0.9-2.5    s1.5-0.9,2.7-0.9l0.8,0l0.1,1.5l-0.8,0c-0.6,0-1.1,0.2-1.3,0.4s-0.4,0.7-0.4,1.2V199.2z M513.2,201.2c0.7,0.2,1.2,0.5,1.5,1    s0.5,1.1,0.5,1.8c0,1-0.3,1.7-1,2.3s-1.6,0.8-2.8,0.8h-5.1v-11.3h5c1.2,0,2.1,0.3,2.8,0.8s1,1.2,1,2.2c0,0.6-0.2,1.1-0.5,1.6    S513.7,201,513.2,201.2L513.2,201.2z M508.2,200.5h2.6c1.4,0,2.1-0.5,2.1-1.6c0-0.5-0.2-0.9-0.5-1.2s-0.9-0.4-1.6-0.4h-2.6    L508.2,200.5z M511.1,205.4c0.7,0,1.3-0.1,1.6-0.4s0.5-0.7,0.5-1.2s-0.2-1-0.5-1.3s-0.9-0.4-1.6-0.4h-2.9v3.3H511.1z M517,207    v-7.8h2v7.8H517z M516.9,195.5h2.2v2h-2.2V195.5z M525,205.6c0.2,0,0.5,0,0.7,0l-0.1,1.5c-0.3,0-0.6,0-0.9,0    c-1.1,0-1.9-0.3-2.4-0.8s-0.8-1.3-0.8-2.3v-3.4h-1.5v-1.5h1.5v-2.3h2v2.3h2.1v1.5h-2.1v3.4C523.6,205.1,524.1,205.6,525,205.6z     M529.8,207.1c-0.7,0-1.3-0.1-1.9-0.3s-1.1-0.4-1.5-0.7l0.6-1.4c0.8,0.6,1.8,0.9,2.9,0.9c0.5,0,0.8-0.1,1-0.2s0.4-0.4,0.4-0.6    c0-0.2-0.1-0.4-0.2-0.5s-0.5-0.2-0.9-0.4l-1.3-0.3c-0.7-0.2-1.3-0.4-1.6-0.8s-0.5-0.8-0.5-1.4c0-0.5,0.1-0.9,0.4-1.3    s0.7-0.7,1.1-0.9s1-0.3,1.7-0.3c0.6,0,1.1,0.1,1.6,0.3s1,0.4,1.4,0.7l-0.6,1.4c-0.8-0.6-1.6-0.9-2.4-0.9c-0.4,0-0.8,0.1-1,0.2    s-0.4,0.4-0.4,0.7c0,0.2,0.1,0.4,0.2,0.5s0.4,0.2,0.7,0.3l1.3,0.3c0.8,0.2,1.3,0.4,1.7,0.8s0.5,0.9,0.5,1.4c0,0.7-0.3,1.3-0.9,1.7    S530.8,207.1,529.8,207.1L529.8,207.1z"/>
		<path class="st1" d="M631.6,195.7h1.6V207h-1.8v-7.5l-3,5.6H627l-3-5.6l0,7.4h-1.8v-11.3h1.6l3.9,7.4L631.6,195.7z M635.5,207    v-7.8h2v7.8H635.5z M635.4,195.5h2.2v2h-2.2V195.5z M644.1,199c0.9,0,1.6,0.3,2.1,0.8s0.7,1.3,0.7,2.4v4.8h-2v-4.7    c0-0.6-0.1-1.1-0.3-1.3s-0.6-0.4-1.1-0.4c-0.6,0-1,0.2-1.4,0.5s-0.5,0.8-0.5,1.5v4.4h-2v-7.8h2v1.2c0.3-0.4,0.6-0.8,1.1-1    S643.5,199,644.1,199L644.1,199z M648.9,207v-7.8h2v7.8H648.9z M648.8,195.5h2.2v2h-2.2V195.5z M662.3,199c0.9,0,1.5,0.3,2,0.8    s0.7,1.3,0.7,2.4v4.8h-2v-4.7c0-0.6-0.1-1-0.3-1.3s-0.5-0.4-1-0.4c-0.5,0-0.9,0.2-1.2,0.5s-0.4,0.9-0.4,1.5v4.4h-2v-4.7    c0-0.6-0.1-1-0.3-1.3s-0.5-0.4-1-0.4c-0.5,0-0.9,0.2-1.2,0.5s-0.4,0.9-0.4,1.5v4.4h-2v-7.8h2v1.1c0.2-0.4,0.6-0.7,1-1    s0.9-0.3,1.4-0.3c1.2,0,2,0.5,2.4,1.5c0.2-0.5,0.6-0.8,1.1-1.1S661.7,199,662.3,199L662.3,199z M674.1,199.2v7.8h-2v-1.2    c-0.2,0.4-0.6,0.8-1,1s-0.9,0.3-1.4,0.3c-1.9,0-2.9-1.1-2.9-3.2v-4.7h2v4.7c0,0.6,0.1,1,0.3,1.2s0.6,0.4,1.1,0.4    c0.6,0,1-0.2,1.3-0.6s0.5-0.9,0.5-1.5v-4.4L674.1,199.2z M685.5,199c0.9,0,1.5,0.3,2,0.8s0.7,1.3,0.7,2.4v4.8h-2v-4.7    c0-0.6-0.1-1-0.3-1.3s-0.5-0.4-1-0.4c-0.5,0-0.9,0.2-1.2,0.5s-0.4,0.9-0.4,1.5v4.4h-2v-4.7c0-0.6-0.1-1-0.3-1.3s-0.5-0.4-1-0.4    c-0.5,0-0.9,0.2-1.2,0.5s-0.4,0.9-0.4,1.5v4.4h-2v-7.8h2v1.1c0.2-0.4,0.6-0.7,1-1s0.9-0.3,1.4-0.3c1.2,0,2,0.5,2.4,1.5    c0.2-0.5,0.6-0.8,1.1-1.1S684.9,199,685.5,199L685.5,199z M703,195.7h2.1l-5,11.3h-1.7l-5-11.3h2.1l3.7,8.7L703,195.7z M709.3,199    c1.1,0,1.9,0.3,2.4,0.8s0.8,1.4,0.8,2.5v4.8h-1.9v-1.2c-0.2,0.4-0.5,0.7-0.9,1s-0.8,0.4-1.4,0.4c-0.5,0-1-0.1-1.4-0.3    s-0.8-0.5-1-0.9s-0.4-0.8-0.4-1.2c0-0.6,0.1-1,0.4-1.4s0.8-0.6,1.4-0.7s1.6-0.2,2.7-0.2h0.4V202c0-0.5-0.1-0.9-0.3-1.2    s-0.6-0.4-1.1-0.4c-0.4,0-0.9,0.1-1.3,0.2s-0.9,0.3-1.3,0.6l-0.6-1.4c0.4-0.3,1-0.5,1.6-0.7S708.7,199,709.3,199L709.3,199z     M708.8,205.7c0.5,0,1-0.2,1.3-0.5s0.5-0.8,0.5-1.4v-0.3h-0.3c-0.7,0-1.3,0-1.7,0.1s-0.7,0.2-0.8,0.3s-0.3,0.4-0.3,0.7    c0,0.3,0.1,0.6,0.4,0.8S708.5,205.7,708.8,205.7z M714.6,207v-11.3h2V207H714.6z M725.8,199.2v7.8h-2v-1.2c-0.2,0.4-0.6,0.8-1,1    s-0.9,0.3-1.4,0.3c-1.9,0-2.9-1.1-2.9-3.2v-4.7h2v4.7c0,0.6,0.1,1,0.3,1.2s0.6,0.4,1.1,0.4c0.6,0,1-0.2,1.3-0.6s0.5-0.9,0.5-1.5    v-4.4L725.8,199.2z M734.8,203.4h-5.3c0.1,0.7,0.3,1.3,0.7,1.6s0.9,0.5,1.6,0.5c0.9,0,1.7-0.3,2.4-0.8l0.6,1.4    c-0.4,0.3-0.8,0.5-1.4,0.7s-1.1,0.3-1.7,0.3c-1.3,0-2.3-0.4-3-1.1s-1.1-1.7-1.1-3c0-0.8,0.2-1.5,0.5-2.1s0.8-1.1,1.4-1.4    s1.2-0.5,2-0.5c1.1,0,1.9,0.3,2.6,1s0.9,1.6,0.9,2.9L734.8,203.4z M731.3,200.4c-0.5,0-1,0.2-1.3,0.5s-0.5,0.8-0.6,1.5h3.6    c0-0.7-0.2-1.1-0.5-1.5S731.9,200.4,731.3,200.4L731.3,200.4z"/>
		<path class="st1" d="M877.6,195.7h1.6V207h-1.8v-7.5l-3,5.6H873l-3-5.6l0,7.4h-1.8v-11.3h1.6l3.9,7.4L877.6,195.7z M884.9,199    c1.1,0,1.9,0.3,2.4,0.8s0.8,1.4,0.8,2.5v4.8h-1.9v-1.2c-0.2,0.4-0.5,0.7-0.9,1s-0.8,0.4-1.4,0.4c-0.5,0-1-0.1-1.4-0.3    s-0.8-0.5-1-0.9s-0.4-0.8-0.4-1.2c0-0.6,0.1-1,0.4-1.4s0.8-0.6,1.4-0.7s1.6-0.2,2.7-0.2h0.4V202c0-0.5-0.1-0.9-0.3-1.2    s-0.6-0.4-1.1-0.4c-0.4,0-0.9,0.1-1.3,0.2s-0.9,0.3-1.3,0.6l-0.6-1.4c0.4-0.3,1-0.5,1.6-0.7S884.3,199,884.9,199L884.9,199z     M884.4,205.7c0.5,0,1-0.2,1.3-0.5s0.5-0.8,0.5-1.4v-0.3h-0.3c-0.7,0-1.3,0-1.7,0.1s-0.7,0.2-0.8,0.3s-0.3,0.4-0.3,0.7    c0,0.3,0.1,0.6,0.4,0.8S884,205.7,884.4,205.7z M894.5,203l3.3,4h-2.4l-2.1-2.6l-2.1,2.6h-2.4l3.3-4l-3.1-3.8h2.4l1.9,2.4l1.9-2.4    h2.4L894.5,203z M898.6,207v-7.8h2v7.8H898.6z M898.5,195.5h2.2v2h-2.2V195.5z M912,199c0.9,0,1.5,0.3,2,0.8s0.7,1.3,0.7,2.4v4.8    h-2v-4.7c0-0.6-0.1-1-0.3-1.3s-0.5-0.4-1-0.4c-0.5,0-0.9,0.2-1.2,0.5s-0.4,0.9-0.4,1.5v4.4h-2v-4.7c0-0.6-0.1-1-0.3-1.3    s-0.5-0.4-1-0.4c-0.5,0-0.9,0.2-1.2,0.5s-0.4,0.9-0.4,1.5v4.4h-2v-7.8h2v1.1c0.2-0.4,0.6-0.7,1-1s0.9-0.3,1.4-0.3    c1.2,0,2,0.5,2.4,1.5c0.2-0.5,0.6-0.8,1.1-1.1S911.4,199,912,199L912,199z M923.9,199.2v7.8h-2v-1.2c-0.2,0.4-0.6,0.8-1,1    s-0.9,0.3-1.4,0.3c-1.9,0-2.9-1.1-2.9-3.2v-4.7h2v4.7c0,0.6,0.1,1,0.3,1.2s0.6,0.4,1.1,0.4c0.6,0,1-0.2,1.3-0.6s0.5-0.9,0.5-1.5    v-4.4L923.9,199.2z M935.2,199c0.9,0,1.5,0.3,2,0.8s0.7,1.3,0.7,2.4v4.8h-2v-4.7c0-0.6-0.1-1-0.3-1.3s-0.5-0.4-1-0.4    c-0.5,0-0.9,0.2-1.2,0.5s-0.4,0.9-0.4,1.5v4.4h-2v-4.7c0-0.6-0.1-1-0.3-1.3s-0.5-0.4-1-0.4c-0.5,0-0.9,0.2-1.2,0.5    s-0.4,0.9-0.4,1.5v4.4h-2v-7.8h2v1.1c0.2-0.4,0.6-0.7,1-1s0.9-0.3,1.4-0.3c1.2,0,2,0.5,2.4,1.5c0.2-0.5,0.6-0.8,1.1-1.1    S934.7,199,935.2,199L935.2,199z M952.7,195.7h2.1l-5,11.3h-1.7l-5-11.3h2.1l3.7,8.7L952.7,195.7z M959,199c1.1,0,1.9,0.3,2.4,0.8    s0.8,1.4,0.8,2.5v4.8h-1.9v-1.2c-0.2,0.4-0.5,0.7-0.9,1s-0.8,0.4-1.4,0.4c-0.5,0-1-0.1-1.4-0.3s-0.8-0.5-1-0.9s-0.4-0.8-0.4-1.2    c0-0.6,0.1-1,0.4-1.4s0.8-0.6,1.4-0.7s1.6-0.2,2.7-0.2h0.4V202c0-0.5-0.1-0.9-0.3-1.2s-0.6-0.4-1.1-0.4c-0.4,0-0.9,0.1-1.3,0.2    s-0.9,0.3-1.3,0.6l-0.6-1.4c0.4-0.3,1-0.5,1.6-0.7S958.5,199,959,199L959,199z M958.6,205.7c0.5,0,1-0.2,1.3-0.5s0.5-0.8,0.5-1.4    v-0.3h-0.3c-0.7,0-1.3,0-1.7,0.1s-0.7,0.2-0.8,0.3s-0.3,0.4-0.3,0.7c0,0.3,0.1,0.6,0.4,0.8S958.2,205.7,958.6,205.7z M964.3,207    v-11.3h2V207H964.3z M975.6,199.2v7.8h-2v-1.2c-0.2,0.4-0.6,0.8-1,1s-0.9,0.3-1.4,0.3c-1.9,0-2.9-1.1-2.9-3.2v-4.7h2v4.7    c0,0.6,0.1,1,0.3,1.2s0.6,0.4,1.1,0.4c0.6,0,1-0.2,1.3-0.6s0.5-0.9,0.5-1.5v-4.4L975.6,199.2z M984.5,203.4h-5.3    c0.1,0.7,0.3,1.3,0.7,1.6s0.9,0.5,1.6,0.5c0.9,0,1.7-0.3,2.4-0.8l0.6,1.4c-0.4,0.3-0.8,0.5-1.4,0.7s-1.1,0.3-1.7,0.3    c-1.3,0-2.3-0.4-3-1.1s-1.1-1.7-1.1-3c0-0.8,0.2-1.5,0.5-2.1s0.8-1.1,1.4-1.4s1.2-0.5,2-0.5c1.1,0,1.9,0.3,2.6,1s0.9,1.6,0.9,2.9    L984.5,203.4z M981.1,200.4c-0.5,0-1,0.2-1.3,0.5s-0.5,0.8-0.6,1.5h3.6c0-0.7-0.2-1.1-0.5-1.5S981.6,200.4,981.1,200.4    L981.1,200.4z"/>
		<path class="st4" d="M160,233v-2h892v2H160z"/>
		<path class="st1" d="M450.7,100.8c1.1,0.3,2,0.9,2.6,1.7s0.9,1.9,0.9,3.1c0,1.7-0.6,3-1.8,3.9s-2.9,1.4-5,1.4h-9V91.3h8.7    c2.1,0,3.7,0.5,4.8,1.4c1.2,0.9,1.8,2.2,1.8,3.8c0,1-0.3,2-0.8,2.7S451.7,100.5,450.7,100.8L450.7,100.8z M442.1,99.6h4.6    c2.5,0,3.7-0.9,3.7-2.8c0-0.9-0.3-1.6-0.9-2.1s-1.5-0.7-2.8-0.7h-4.6V99.6z M447.1,108.2c1.3,0,2.3-0.2,2.9-0.7s0.9-1.2,0.9-2.2    s-0.3-1.7-0.9-2.2s-1.6-0.7-2.8-0.7h-5v5.8L447.1,108.2z M463.2,97c1.9,0,3.4,0.5,4.3,1.4s1.4,2.4,1.4,4.3v8.3h-3.3v-2.1    c-0.3,0.7-0.8,1.3-1.5,1.7s-1.5,0.6-2.4,0.6c-0.9,0-1.7-0.2-2.5-0.6s-1.3-0.9-1.8-1.5s-0.6-1.4-0.6-2.2c0-1,0.3-1.8,0.8-2.4    s1.3-1,2.5-1.3s2.8-0.4,4.8-0.4h0.7v-0.6c0-0.9-0.2-1.6-0.6-2s-1.1-0.6-2-0.6c-0.7,0-1.5,0.1-2.3,0.4s-1.6,0.6-2.3,1.1l-1-2.4    c0.8-0.5,1.7-0.9,2.8-1.2S462.3,97,463.2,97L463.2,97z M462.4,108.7c0.9,0,1.7-0.3,2.3-0.9s0.9-1.4,0.9-2.4v-0.6h-0.5    c-1.3,0-2.2,0.1-2.9,0.2s-1.2,0.3-1.5,0.6s-0.4,0.7-0.4,1.1c0,0.6,0.2,1.1,0.6,1.5S461.8,108.7,462.4,108.7z M477.5,111.2    c-1.2,0-2.3-0.1-3.3-0.4s-1.9-0.7-2.6-1.3l1-2.4c1.5,1.1,3.1,1.6,5,1.6c0.8,0,1.4-0.1,1.8-0.4s0.6-0.6,0.6-1.1    c0-0.4-0.1-0.7-0.4-1s-0.8-0.4-1.6-0.6l-2.2-0.5c-1.3-0.3-2.2-0.7-2.8-1.4s-0.9-1.5-0.9-2.5c0-0.8,0.2-1.6,0.7-2.2s1.1-1.1,2-1.5    s1.8-0.5,3-0.5c1,0,1.9,0.1,2.8,0.4s1.7,0.7,2.4,1.3l-1,2.4c-1.4-1-2.8-1.5-4.3-1.5c-0.8,0-1.4,0.1-1.8,0.4s-0.6,0.7-0.6,1.2    c0,0.4,0.1,0.7,0.4,0.9s0.7,0.4,1.3,0.6l2.3,0.5c1.4,0.3,2.4,0.8,3,1.4s1,1.5,1,2.5c0,1.3-0.5,2.3-1.5,3S479.3,111.2,477.5,111.2    L477.5,111.2z M486.1,111V97.3h3.5V111H486.1z M485.9,91h3.9v3.4h-3.9V91z M499.4,111.2c-1.4,0-2.7-0.3-3.7-0.9s-1.9-1.4-2.4-2.5    s-0.8-2.3-0.8-3.7s0.3-2.7,0.9-3.8c0.6-1.1,1.4-1.9,2.5-2.5s2.3-0.9,3.8-0.9c1,0,1.9,0.2,2.8,0.5s1.7,0.7,2.2,1.2l-1,2.5    c-0.6-0.5-1.2-0.8-1.8-1.1s-1.3-0.4-1.9-0.4c-1.2,0-2.2,0.4-2.8,1.1s-1,1.8-1,3.3c0,1.4,0.3,2.5,1,3.2s1.6,1.1,2.8,1.1    c0.6,0,1.3-0.1,1.9-0.4s1.3-0.6,1.8-1.1l1,2.4c-0.6,0.5-1.4,1-2.3,1.3S500.4,111.2,499.4,111.2L499.4,111.2z M528,91.3h3.4V111    h-2.7l-10.6-13.8V111h-3.4V91.3h2.7L528,105V91.3z M547.9,97.3V111h-3.4v-2.1c-0.4,0.7-1,1.3-1.7,1.7s-1.5,0.6-2.5,0.6    c-3.4,0-5-1.9-5-5.7v-8.3h3.5v8.3c0,1,0.2,1.7,0.6,2.2s1,0.7,1.8,0.7c1,0,1.8-0.3,2.3-1s0.9-1.5,0.9-2.6v-7.6H547.9z M567.8,97    c1.5,0,2.7,0.5,3.5,1.4s1.1,2.3,1.1,4.2v8.4h-3.5v-8.3c0-1-0.2-1.8-0.5-2.3c-0.4-0.5-0.9-0.7-1.7-0.7c-0.9,0-1.7,0.3-2.2,1    s-0.8,1.5-0.8,2.7v7.6h-3.5v-8.3c0-1-0.2-1.8-0.5-2.3c-0.3-0.5-0.9-0.7-1.7-0.7c-0.9,0-1.6,0.3-2.2,1s-0.8,1.5-0.8,2.7v7.6h-3.5    V97.3h3.4v1.9c0.4-0.7,1-1.3,1.7-1.7s1.6-0.6,2.5-0.6c2.1,0,3.4,0.9,4.1,2.6c0.4-0.8,1-1.4,1.8-1.9S566.8,97,567.8,97L567.8,97z     M588,104.8h-9.3c0.1,1.3,0.5,2.2,1.1,2.8s1.6,0.9,2.8,0.9c1.5,0,2.9-0.5,4.1-1.5l1,2.4c-0.6,0.5-1.4,0.9-2.4,1.3    s-1.9,0.5-2.9,0.5c-2.2,0-4-0.6-5.3-1.9s-1.9-3-1.9-5.2c0-1.4,0.3-2.6,0.8-3.7c0.6-1.1,1.3-1.9,2.4-2.5s2.2-0.9,3.5-0.9    c1.9,0,3.4,0.6,4.5,1.8s1.6,2.9,1.6,5L588,104.8z M582,99.4c-0.9,0-1.7,0.3-2.3,0.9c-0.6,0.6-0.9,1.5-1,2.6h6.3    c0-1.1-0.3-2-0.8-2.6C583.6,99.7,582.9,99.4,582,99.4L582,99.4z M599.9,99.9l-2,0.2c-2.3,0.2-3.5,1.4-3.5,3.5v7.4h-3.5V97.3h3.3    v2.4c0.7-1.6,2.2-2.5,4.4-2.7l1.1-0.1L599.9,99.9z M601.6,111V97.3h3.5V111H601.6z M601.4,91h3.9v3.4h-3.9V91z M614.9,111.2    c-1.4,0-2.7-0.3-3.7-0.9s-1.9-1.4-2.4-2.5s-0.8-2.3-0.8-3.7s0.3-2.7,0.9-3.8s1.4-1.9,2.5-2.5s2.3-0.9,3.8-0.9c1,0,1.9,0.2,2.8,0.5    s1.7,0.7,2.2,1.2l-1,2.5c-0.6-0.5-1.2-0.8-1.8-1.1s-1.3-0.4-1.9-0.4c-1.2,0-2.2,0.4-2.8,1.1s-1,1.8-1,3.3c0,1.4,0.3,2.5,1,3.2    s1.6,1.1,2.8,1.1c0.6,0,1.3-0.1,1.9-0.4s1.3-0.6,1.8-1.1l1,2.4c-0.6,0.5-1.4,1-2.3,1.3S615.9,111.2,614.9,111.2z M634.9,111V94.2    h-6.4v-3H645v3h-6.4V111H634.9z M656.7,97.3h3.4l-8.2,18.7h-3.5l2.5-5.6l-5.7-13.1h3.7l3.9,9.7L656.7,97.3z M669.7,97    c1.2,0,2.2,0.3,3.2,0.9s1.6,1.4,2.2,2.5c0.5,1.1,0.8,2.3,0.8,3.8s-0.3,2.7-0.8,3.7s-1.2,1.9-2.1,2.5s-2,0.9-3.2,0.9    c-1,0-1.8-0.2-2.6-0.6s-1.4-1-1.8-1.7v7.1h-3.5V97.3h3.4v2.1c0.4-0.8,1-1.4,1.8-1.8S668.7,97,669.7,97z M668.8,108.5    c1.1,0,2-0.4,2.6-1.1s0.9-1.8,0.9-3.2c0-1.4-0.3-2.5-0.9-3.3s-1.5-1.2-2.6-1.2c-1.1,0-2,0.4-2.6,1.1s-0.9,1.9-0.9,3.3    c0,1.4,0.3,2.5,0.9,3.2S667.7,108.5,668.8,108.5z M690.7,104.8h-9.3c0.1,1.3,0.5,2.2,1.1,2.8s1.6,0.9,2.8,0.9    c1.5,0,2.9-0.5,4.1-1.5l1,2.4c-0.6,0.5-1.4,0.9-2.4,1.3s-1.9,0.5-2.9,0.5c-2.2,0-4-0.6-5.3-1.9s-1.9-3-1.9-5.2    c0-1.4,0.3-2.6,0.8-3.7c0.6-1.1,1.3-1.9,2.4-2.5s2.2-0.9,3.5-0.9c1.9,0,3.4,0.6,4.5,1.8s1.6,2.9,1.6,5L690.7,104.8z M684.7,99.4    c-0.9,0-1.7,0.3-2.3,0.9c-0.6,0.6-0.9,1.5-1,2.6h6.3c0-1.1-0.3-2-0.8-2.6C686.3,99.7,685.6,99.4,684.7,99.4L684.7,99.4z     M698.6,111.2c-1.2,0-2.3-0.1-3.3-0.4s-1.9-0.7-2.6-1.3l1-2.4c1.5,1.1,3.1,1.6,5,1.6c0.8,0,1.4-0.1,1.8-0.4s0.6-0.6,0.6-1.1    c0-0.4-0.1-0.7-0.4-1s-0.8-0.4-1.6-0.6l-2.2-0.5c-1.3-0.3-2.2-0.7-2.8-1.4s-0.9-1.5-0.9-2.5c0-0.8,0.2-1.6,0.7-2.2s1.1-1.1,2-1.5    s1.8-0.5,3-0.5c1,0,1.9,0.1,2.8,0.4s1.7,0.7,2.4,1.3l-1,2.4c-1.4-1-2.8-1.5-4.3-1.5c-0.8,0-1.4,0.1-1.8,0.4s-0.6,0.7-0.6,1.2    c0,0.4,0.1,0.7,0.4,0.9s0.7,0.4,1.3,0.6l2.3,0.5c1.4,0.3,2.4,0.8,3,1.4s1,1.5,1,2.5c0,1.3-0.5,2.3-1.5,3S700.3,111.2,698.6,111.2    L698.6,111.2z M714.7,111V97.3h3.5V111H714.7z M714.5,91h3.9v3.4h-3.9V91z M729.8,97c1.6,0,2.9,0.5,3.7,1.4s1.2,2.3,1.2,4.2v8.4    h-3.5v-8.2c0-1.1-0.2-1.8-0.6-2.3s-1-0.7-1.9-0.7c-1,0-1.8,0.3-2.4,1s-0.9,1.5-0.9,2.5v7.8h-3.5V97.3h3.4v2    c0.5-0.8,1.1-1.4,1.9-1.8S728.8,97,729.8,97z M762.6,100.3v9.5c-0.9,0.4-2,0.8-3.3,1.1s-2.6,0.4-3.9,0.4c-2,0-3.8-0.4-5.3-1.2    s-2.6-2-3.4-3.5s-1.2-3.3-1.2-5.4c0-2.1,0.4-3.9,1.2-5.4s1.9-2.7,3.4-3.5s3.2-1.2,5.2-1.2c1.4,0,2.7,0.2,3.9,0.6s2.2,1,3,1.7    l-1.2,2.6c-0.9-0.7-1.8-1.2-2.7-1.5s-1.9-0.5-2.9-0.5c-2,0-3.6,0.6-4.6,1.8s-1.6,3-1.6,5.4c0,4.9,2.1,7.3,6.4,7.3    c1.3,0,2.5-0.2,3.8-0.5v-5h-4.3v-2.6H762.6z M772.6,111.2c-1.4,0-2.6-0.3-3.7-0.9s-1.9-1.4-2.5-2.5s-0.9-2.3-0.9-3.8    s0.3-2.7,0.9-3.8s1.4-1.9,2.5-2.5s2.3-0.9,3.7-0.9s2.6,0.3,3.7,0.9s1.9,1.4,2.4,2.5c0.6,1.1,0.9,2.3,0.9,3.8s-0.3,2.7-0.9,3.8    s-1.4,1.9-2.4,2.5S774,111.2,772.6,111.2z M772.5,108.5c1.1,0,2-0.4,2.6-1.1s0.9-1.8,0.9-3.3c0-1.4-0.3-2.5-0.9-3.3    s-1.5-1.1-2.6-1.1s-2,0.4-2.6,1.1s-0.9,1.9-0.9,3.3c0,1.5,0.3,2.6,0.9,3.3S771.4,108.5,772.5,108.5z"/>
	</g>
</g>
</svg>